/* XPM */
static char * 1_xpm[] = {
"60 60 32 1",
" 	c #40212A",
".	c #521F25",
"+	c #6A2022",
"@	c #4A2D36",
"#	c #831F1D",
"$	c #383532",
"%	c #A11B15",
"&	c #BA190F",
"*	c #553B43",
"=	c #CC1B0B",
"-	c #5C3B34",
";	c #E82A04",
">	c #80482D",
",	c #76503C",
"'	c #AE4B2B",
")	c #93603C",
"!	c #CA5927",
"~	c #9C6842",
"{	c #F25304",
"]	c #A77047",
"^	c #A5744A",
"/	c #F56F04",
"(	c #B38054",
"_	c #D6841F",
":	c #BE8D5B",
"<	c #F78703",
"[	c #D38D8A",
"}	c #FAA403",
"|	c #F6B307",
"1	c #F9B0AB",
"2	c #F7C908",
"3	c #FDEC00",
"      @@   .;<;#  @*****-,)]]]]~),-   @  #/;            &/& ",
" @*******@  #;/=   @@*,~]]]]]]]]]]])-    %/;.           ;};&",
"**********@  =/;#   -~]]]]~~~~]]~]]]])-  =<;+          +{3|{",
"*@@@@   ***  #;/;  ,]]]~))~]]^::()~]]]],+;2/%          &//;;",
"         **@  =/{%)]]])))~~]]^::(~~~~]]]'}32;#       .&{/&. ",
"         @**  #{<']]~^)))~~]]^::(~~~((]]]232<;;;=&&&=;{2{#  ",
"          **  .;_]]~^^)))~~]]^::(~~~(:(]]]_=&%%&=;;;;==/{#  ",
"          @*   &]]]^^^))~~~]]^::(~~~(::~]]]#      .    ;{#  ",
"               ~]](^^^))~~~]]^::(~~~(::~)]]'           ;{#  ",
"              +]]^:^^^)))~~]]^::(~~~(::~)~]].   @*@@   ;{#  ",
"             &']]::^^^)))~~]]^::(~~~(::~))]]#  @*****  ;{#  ",
"            &{]]^::^^^)))~~]]^::(~~~(::~))~]'.   @@@@  ;{#  ",
"           #;_]](::^^^)))~~]]^::(~~~(::~)))]]&        .{{#  ",
"           &/_]](::^^^)))~~]]^::(~~~(::~)))]];+      .&</#  ",
"[=&&&%%###%;<!]]:::^^^)))~~]~^::(~~~(::~)))]]<;.   #&{<3}&  ",
"1{<//{{{{{{<|!]~:::^^^~~~~~]]^::(~~~(::~)))]]|<=#&;/|3333{=#",
"1;{{{//<}2333_]]]]]]]]]]]]]]]]]]]]]]]]]]]]]]]|3}{<</<}3332<{",
"[%%&&&=;;{}33|]]]]]]]]]]]]]]]]]]]]]]]]]]]]]]]}32/;=%%&{23/;;",
"        .%;|3_]~^^^~~~)))))~)~~~~)))~~]))))]]_/;#     %/|= .",
"          %/|!]~:::^^^)))~~]]^::(~~~(::~)))]]=%       +{/%  ",
"@******@  +;<!]~:::^^^~)~~~]]^::(~~~(::~)))]]+    **  .{{#  ",
"********@ .;_']~:::^^^~)~~~]]^::(~~~(::~)))]]-    **@ +{{+  ",
"@@@@@@@@@  ;>,]~:::^^^)))~~]]^::(~~~(::~)))]]-        +{;. @",
"           &>,]~:::^^^)))~~]]^::^,,,)~),--$$]-        #/;.  ",
"           &',]~:::^^^~))~~]]^::)----$$$$$$$~%%#.     #/;   ",
" @@****@   &%,]~:::^^^))~~~]]^::(~~~(::~)),)]-          .   ",
"@*******  &;%,]~:::^^^)))~~]]^::(~~~(::~)))]]-    @@        ",
" @@    @  =<&,]~:::^^^)))~~]]^::(~~~(::~)))]]-@*******@  .  ",
"          ;<&,]~:::^^^))~~~]]^::(~~~(::~)))]]-********@ .&  ",
"         .;<=,]~:::^^^~))~~]]^::(~~~(::~)))]]-          +;% ",
"         %{2;>]~:::^^^~))~~]]^::(~~~(::~)))]]-          %{& ",
"       .%{23<!]~:::^^^~))~~]]^::(~~~(::~)))]]-          &/= ",
"@.+#%&={<233|_]~:::^^^~))~~]]^::(~~~(::~)))]]-          ;}{;",
"1;{//<<|333/=']~:::^^^)))~~]]^::(~~~(::~)))]]-         +{3|{",
"1;/{{;;;;}3{.,]~:::^^^~))~~]]^::(~~~(::~)))]]-         =<{;=",
"[%##+.  .;}{#,]~:::^^^)))~~]]^::(~~~(::~)))]]#+.    .#=</&  ",
"         #{<=,]~:::^^^)))~~]]^::(~~~(::~)))]]=;;;;;;;;{2{#  ",
"  @@@@@@  %/;']~:::^^^))~~~]]^::(~~~(::~)))]]#%%&&==&%&{{#  ",
"********@ .;/!]~::^,^^~)~~~]]^::(~~~(::~)))]]-         ;{#  ",
"***@@@@**  %{!]~::-$)^~))~~]]^::(~~~(::~)))]]-         ;{#  ",
"       **@ .;_]~:^:^,^~))~~]]^::(~~~(::~)))]]- @****@  ;{#  ",
"        **  %!]~:(^),^~))~~]]^::(~~~(::~)))]]- @*****  ;{#  ",
"        @*@ +!]~:::)^^~))~~]]^::(~~~(::~)))]]+     @@  ;{#  ",
"         *@  !]~:::^^^~)~~~]]^::(~~~(::~)))]]&        +{{#  ",
"             ']~:::^^^))~~~]]^::(~~~(::~)))]]{#      #=</%  ",
"           .=!]~:::^^^~)~~~]]^::(~~~(::~)))]]_;+  +&;{}3|=. ",
"          +;/_]~:::^^^~)~~~]]^::(~~~(::~)))]]||;%={/23333<;&",
"         .;<{!]~:::^^^))~~~]]^::(~~~(::~)))]]}32<</{{/|332<{",
"         #{/=>]~:::^^^)))~~]]^::(~~~(::~)))]]}2}{=%##%;|3{&=",
"&&&%#####=<;+,]~:::^^^)))~~]]^::(~~~(::~)))]]_;&.     #{}=  ",
";<//{{{{/<|; ,]~:::^^^)))~~]]^::(~~~(::~)))]]=#       +{/%  ",
";{{{{{/|333/=']~:::^^^)))~~]]^::(~~~(::~)))]]-    **@ .{{#  ",
"++++##%={232<!]~:::^^^)))~~]]^::(~~~(::~)))]]-    @*@ +{{+  ",
"        %{3{=']~:::^^^))~~~]]^::^)~~(((),,--]-        +{;. @",
"@@@@@@  .;<; ,]~:::^^^~))~~]]^::)$-$$$$$$$$$~-        #/;   ",
"*******  =<; ,]~:::^^^)))~~]]^::^)~~(::)),,,]&=&%#.   %/;   ",
"@@@@@**  &/; ,]~:::^^^)))~~]]^::(~~~(::~)))]]//</{;&#+=<;   ",
"     @@  %/{+,]~:::^^^)))~~]]^::(~~~(::~)))]]#%=;;{//{<2;.  ",
"         #{{#,]]:::^^^))~~~]]^::(~~~(::~)))]]-   .#%={|3{#  ",
"         #{/%,]~:::^^^))~~~]]^::(~~~(::~)))]]-       +;2}=. "};
