/* XPM */
static char * 10_xpm[] = {
"60 60 32 1",
" 	c #000000",
".	c #121312",
"+	c #1B1B1B",
"@	c #232323",
"#	c #2A2A2A",
"$	c #323232",
"%	c #393A39",
"&	c #444444",
"*	c #4C4D4C",
"=	c #555555",
"-	c #5E5E5E",
";	c #666666",
">	c #6C6D6D",
",	c #767676",
"'	c #7D7E7E",
")	c #878787",
"!	c #8E8E8E",
"~	c #959595",
"{	c #A0A0A0",
"]	c #A8A8A8",
"^	c #AFB0B0",
"/	c #B8B9B8",
"(	c #BEBFBF",
"_	c #C7C7C7",
":	c #CECECE",
"<	c #D5D6D6",
"[	c #DEDEDE",
"}	c #E5E5E5",
"|	c #E9E9E9",
"1	c #EDEDED",
"2	c #F2F2F2",
"3	c #FFFFFF",
":[|||}|[<}2222211221}[[<}21}1|||112222222}22|}[|122[(<[<:}1|",
"}|||}}|[|}|11221|221|[[[22323333322222222[|}[1[122|(_[[<<21|",
"2||||||1|[1212121121}[<|32/!)')~]_2222221[}1|1}2|[_(<[[[121|",
"11|1211112222122|12|[<[2|&       @|222221[|2||1[_:_<}}|2221|",
"111111222111[|2||||}}<}3{        .<2|211|}|1}}}_<[[}||22221|",
"|111|12|}|1}}1||2|}[[[|3,         _3232|}}}1[<|}[[}|||22221|",
"}111|22||11||[|22[[[}123-         -~!{(<2|1|<[2[<[|1||2211||",
"||1112211111[}222[|21}[(#              .'|[<<}1|<[11|1211|}}",
"||11122211|[}|12|[{=$..                 -2}|221|[}122221|}}|",
"|||222221|[}112|[!                     -}221[[[[}22222221122",
"1}|212221||||}[<[:,$.               %'_221|[[[[|122222221122",
"|}}11122[[<<::[}|232</)+>,,),;)){]/#/3221}[||}}}221122221212",
"}||}|21<[[<[}|2|222333^*3333/^}2}><'-311[[|[[}}}22||12222|12",
"111112}|21||1|22222223,>3|1|}}[}(&<(&222[||[}|}}22|1|221}|[<",
"||111[|111<}2|}2222223!=31}}|}|[:_2<$[22<[|222122221|2211<(<",
"||111}111[<|1[<|11||1|<#^3__|}|}[22_%|22[<12222222}}1122|__<",
"|12|[[[}[<<1|<[22||21}}^@/3(_}}[[<[>-321[<|1}}[|1|[|}[2|}:/:",
"|2}<[[}1[<[1|<|1|222|}<3/@>((__<</!@_22}<<[|||}12|<}[[1|}<]_",
"1}<}||11<[}1<[2}|11||}}23<>$*=-;-*&(2|1[<}|121222}[1||1|}:^<",
"2}||||1|[}[[<12}}1112}[2123[);.-']23||1|1||1|12|2|}211|}}_/|",
"||}}||1}[:<<[22|[2222|[2211|}[$13322[}||||1}}1112}}1|1[[|_(2",
"11|}|1|<<<[[|21|[1211|}222}:[_%|1122<|}}}}|[}22|1}|1}[[<}_[2",
"|1||||[<[[<[22||[|11112221:<2(&2223|<||1|||[}21<|[||<<<[[<|2",
"}11||}<<<<<}21}[[|2223321[}32!*3222[||112|}[}2[<}[|[<}11}[|2",
"[|1||[:<<<[1|[[}22232222}23{%@.;}||1||121[<[22<:[2|}}|21}122",
"}}|1}::<<[||}|22222222213<*#^)=>#:|}||11[[[|2|[:|2|1112||}12",
"|||1}<[<<|22222222222123!@;<3,,3'@:1|||[[[[[1}[<|21|221[[}12",
"|}}11[[<[222221|111||3[*#^1}3,,33'$[1|}[[[}}[_<[|21}22}}1222",
"|||||[[<132221||12223]@>121|3>'3|3>%}1|[[[}<<}||221|11}12222",
"}}<<[}_[22222|}12232;#/3}[|}3;!3||1*;3}}}|<_21|22221}|11222|",
"|<<<}<:22222|}1223<$=13}}[}}2=~|[[|<#{3}}<_|2}12221}}|12221|",
"}[[|}[|22222|2213/@!32}|1|}}1*{1[|[[/@<2}_[2122222||112222|}",
"|122||222221|1|3]+/321}}11|}1*^31|[[3)%2}<|12222222112222||}",
"2221|[122221||2_@(3121[}111||&/21|12|2=;|[2222212221122221|1",
"||22|[[1211|113((3222|[|12||[%(1|112|[}%'31222212222|2222211",
"|122|[[}1|||22|23|111[[11}}2[$:|}12|}<2<@^321122222212222211",
"12|[1}}[|2121||1|||11}||}[12[$<2122}}[[2((3112222221222221[[",
"2}<|2|[<[22221221|2221}}||12<$[|}|}[[<}1132|222221112222|[[[",
"[<122|[[|22221|1}|2221}}|||3<$:[[[<<<<22|11|22222121}[[[|122",
"<221[[|122222[}1121121[[[}23~$[}}[[[[[222|122211222||1|||1}[",
"21}[[|222222}[12[|1221}}}|3{+#<1}}|1[1221}}22|[|221|21222|:[",
"|}[[}|221|||1}1|[1222|}}|23%/!-3}|1<<22||1}121|122[[}|22<<}2",
"[}}1}|221||21[}[|2212}|113_$}2%^2<:_|22||2|122|12||2222[[111",
"[[1|[}222|12|[}1221|122223'-23]&[_:}2221122122||1||222|12211",
"[|1|[}222111|[|2221|122223&]22}%~[[1122}122122}[22[|22|21221",
"|111}}2221}1}[12222112213_%[1|}!&||1122[111212[}2|[222|22222",
"}21|[|222}}1|}122221121|3,-211[<#_2||2}[11|||}[[1}122||2221|",
"}21}}2122[|11|221}12211<[*{32|<|-'3[||||1|||}<<[|1211|2221|}",
"}2|[12|22|22221}[}2221[<_$[|1|<}(%1|}1222111|}|122}}222221|[",
"|1||211122211|}}[|222|<2!-2}2|<}3&^2[1122|122222}}[1221111|[",
"[[[[[1111}<[[}1[|2222}}3=~3[|}[13'-3[11221121}[[[12222||||[<",
"<<[}11}}[:[}}22}2111111<$[|[|}|23:$|2112[<[[<_<[}22221}}}[[|",
"}1222[[[[:|1|12|1||2223~=2}|112212*{3|[<_<<<_<}1222222|||[}1",
"221}|<[|[[1|||1||[}2223-)31111|}}3)-3<___:<[[|2222222211}[}1",
"21|[}<[}[}}}||11|[1222|$_2||||[}12<%<_[<<<[|}|1121||||[}}[}2",
"|1|}}[}|122211111}2223]&12[}}[}1223*![[[}[11|1122[}}}<<[[[|2",
"22}}|22222222221||2223;'3}[}1111||[-=2}}<}211|}1|}}}}[|1||22",
"12|2221122122221|12222%(2|}2|[[[<(^~&1}<<1222|}}|||122222222",
"2221}}|221|||2211|223<$|1|<:___:_^/<$:1[}2211|||}11122112222",
"221}[|21}[<}22211||23_>1[<^^(((__/_1-~|[}[[[<[||}}1111111|22"};
