/* XPM */
static char * 11_xpm[] = {
"60 60 32 1",
" 	c #000000",
".	c #0F0F0F",
"+	c #1B1B1B",
"@	c #212121",
"#	c #292929",
"$	c #333333",
"%	c #393939",
"&	c #424242",
"*	c #4A4B4A",
"=	c #565656",
"-	c #5E5E5E",
";	c #666666",
">	c #6E6E6E",
",	c #777877",
"'	c #7E7E7E",
")	c #888888",
"!	c #8F908F",
"~	c #969696",
"{	c #9D9D9D",
"]	c #A5A5A5",
"^	c #ACADAC",
"/	c #B4B4B4",
"(	c #BCBCBC",
"_	c #C4C5C4",
":	c #CBCCCC",
"<	c #D3D4D3",
"[	c #DADADA",
"}	c #E0E1E0",
"|	c #E7E7E7",
"1	c #EDEDED",
"2	c #F2F2F2",
"3	c #F6F7F7",
"}|222121}13333322232111|1331322223233333313321112321<}|}}122",
"}||||||}||1112211221|}}[22212111122222222}1|}1}1221__[}[<11|",
"1|||||1||}1112111121|}[|22_~)')~^:1223221}|1|1}21|<(<}}}|21|",
"11|11111|1222212112|}[[21%       .2122211}|211||::::}}|2221|",
"111111122211}|21||||}[|2]         }112211}|1|||:<[}|||12211|",
"|1111121||1|}11|2||}|[12>         :2121||}|1|<|}}}}|1122221|",
"|111|12||11|1}|22}}}}|23=         ;~~{_}||11[[2}[}|1||2211||",
"|11112211111}|122[}|22|_@              .'||[[|1|[|11|12211||",
"||121221111}}1121[]*@.                  -}}|1111[[122221||||",
"|111222211}}1|22[!                     =|112|}}}}22222211122",
"1||212221|||11}[[<,#                $'<121|[[|}|132222221123",
"|||11232||}[<:[}|122|(~.,,,)!!!!~(:@:}122|}||}|}221122221213",
"||||122[[[<[}|2|222332/=11<(]|<!^||);|21}}|}}|}|2211122221|2",
"111112||21||1|21322332!,111_|||}[2]:#122[||[}||}3211|221}||<",
"11111|1111[}2||2222221^*1111|||}[2>}+122[}|121123222|2211[_[",
"||111}111}[11}[112212|[#_)[1|||}}>:[#122}[12222322|}|212|::[",
"|111|}|}}[[1|[}22||12|[(@(,,(||/-:2)>222}<|1||}111}||}2||:_:",
"121[[[|1}[[1|[|11222||<2_@,_',']|1:@<22|}<[1|||111[}}}2|}}]:",
"1|<}||11[[}1[[2|1111|||22[,@=,)]!=$_112}<}|111122|[|||1||:/<",
"2|||||1|}}}}[|2||1112|}2112|{,.-)(321|1||||1|1211||11|1||_/1",
"1||||11|}<<[}22|}2222|}2212|<}+12222}|1|111||1112||111}}|:(2",
"11|||11[<<[[|21|}1211|}221|<[}#22232<|}||||[|2212}11||}[|_[2",
"11|||1}<[[[[221|}|111|2221<[|:%22231[||1|||[|11[1}1|[[<}|<|2",
"|11|||[<[<[}21|}}12233322}[11/*2332}||1111|}|2}<|[|}[|||}<12",
"}|1||}<<<<}11}}|12333332|12/#@.>||12||111}[[12[<}2|}}|21||22",
"}||1|<<<<[|1||12233333221}-$^~;;#:|||111|}}|2|[:|2|1111|||22",
"||11|[[[[|21222323222221]@,<}!'2~#<|||||}}}}1}}<1211221|}|22",
"1||11[[[[23222211211|2}=$([|1')22!$[||}}}}|}|:<[|31|12}|1223",
"|||11}[<|32221||12222/@,}1211,~211'&[1|}}[|}:}|1231|11}12332",
"||[[[}:[322221|12232,#_1||||1;]221}=,|||}|}_11|23311|||1232|",
"|[[[|}:122221|1223[%;11||}|||=^}}}}:#^|||[_|2|13332|}112331|",
"|[}}}}}22222|2222_@{32||1||||*/[|||<:@[||:}2212333||112332||",
"||12||222221|111/@_222||11|}|&:111[}|~&1|<|11223222111232|||",
"2222|}122221|11[@:2221}|111||%:11|111|-,[}122221222112332111",
"||21|}}2211|112:_22221}|11||}#[|1112|}}%!|112121222211322211",
"|122|}}|1|1|222222222}}11||1|@}}|221}[1<#(222122332212222211",
"121|1||}|2112||2|||11}|||}12|+|1122}|}}|_:2212232221222322|}",
"21[|1|}[}2222222112221||||12}+1||1|}}<|1|221222221112222|}[}",
"|<|22||}|2222111||2221||||12[+[[[}[[[<12112|2222212||||||222",
"<122|}|122222||1122121}}}}12^@}}}}[[[[222|1222222321||||||||",
"12|}}|222222|}12|11221}}|12]#+}|||||}1321||221}|221|222222<[",
"||}}||2211||||11[1122||||23%(!;1||1|<321|1|22||122|}}|12}<}1",
"}|}|||221||21}|}|2212}||23[#}1%(|[<:|22|11|1221131|2222}[||1",
"}}||||222|12|}}12311122223!>|1/&[:<}22211221221|1|1222112211",
"}|1|}|222111|}|22311121223%(|2|$]<}1223|112122|[12}|22|22221",
"|111||2221|1|[12221112222[#}11[{*[|1122}111212}|21}232|22222",
"}211||232||1|}1332221211|)>}11<[@[11|2|}11111|}}1}1231|2221|",
"}21|}2122}|11|231|12221}}&/12|[[>)1||1||1||||[[[||322|22211}",
"|2||12122|12222|}|2221}<<@||1|[[:#1||1121111|}||12||122221|}",
"|1||322222221||}}|221|[}{;|11|[}2%_||122211222221|}1221111|}",
"}}||}1121|[[}}1||2222|}1=^1|1|[12~>1|122211211|}[11222111|}[",
"<[[}11||}<[}|12|111111|}+||}|||22}@21112|}}}[:<[}22221|}||}|",
"}|222|}}[<|||1211|12221^=|||112222*^11|[_<<<_<}1232222|1|}|1",
"222||[}|[[11|11|1}|3222-{112211|||~-1[::_<<[[|22232222|1|}|1",
"21|}|[}|[|||||111}12222@}|||||||11|@}_[[<<}||11111|111|||[|2",
"|1|}|[|||11111111}2222(&|1|||}}|222*]<[[}}1||1122}|||[<}}}}2",
"12|||122222222211|2222>!11}}|12211[>-|||[|1111|2|||||[}|||22",
"12|1222122122222|23222$:||}11|}[[:^]$1}[<1221||||||122222222",
"2221|||12211|2211|222|@11|[[:<<<://}@}|[}2221||||11122222222",
"221|}|21|}<|22211|123[;|}[/(_((::/:[-^}}||}}[}||||1111111|22"};
