/* XPM */
static char * 12_xpm[] = {
"60 60 32 1",
" 	c #000000",
".	c #121313",
"+	c #1B1B1B",
"@	c #212222",
"#	c #2B2C2B",
"$	c #323332",
"%	c #383838",
"&	c #3F3F3F",
"*	c #484848",
"=	c #4F4F4F",
"-	c #555656",
";	c #5D5E5D",
">	c #656565",
",	c #6E6E6E",
"'	c #767676",
")	c #7D7D7D",
"!	c #868686",
"~	c #8E8E8E",
"{	c #979797",
"]	c #9F9F9F",
"^	c #A9A9A9",
"/	c #AFAFAF",
"(	c #B8B8B8",
"_	c #BFBFBF",
":	c #C6C6C6",
"<	c #CECECE",
"[	c #D6D6D6",
"}	c #DEDEDE",
"|	c #E5E5E5",
"1	c #EBEBEB",
"2	c #F2F2F2",
"3	c #F6F7F7",
"<}111|1|[}2222211221|}}[|22|2111122222222|221|||122}_[}[<111",
"|11||||}1|1112211221|}}}22212112222223222}1||2}1221_:}}[[211",
"11|111111|1222121121|}[1322|2222222222221}|111}21}<_[}}}1211",
"21122112122221221121}}}2222|2122222122221|12111}:<<[}||22211",
"111122222111}12111|||[12222}2111|11212211|11|}|<[}}|11222211",
"11111121|11||1112||||}2233^&@. .@%,2121||||1|[1|[}|111222211",
"|1111221112|1}122}}}}1233_        .1122|1111[}2}[}1111222211",
"|11222211111}|222}}122233'         }111|}|}[[|11[}11112211||",
"11122222111}|1221[}222333=         _|11|1|112111[|2222211||1",
"1112222211||1121[}1222332$         .++#=)}22}}}}122222212122",
"1|12122211|111[[}123:]!,&                =|}}|}1132222221223",
"1||11232|}[[<<}|11[$                     ]}1|||}222122221213",
"|1||122[[}}}|12|22{                    >_}1|}|||221112222112",
"111122|121112122323|{> +.      .+$*;,@[2[11}||||32111221|1}[",
"11111}1121[|21|222222{;122111|1}}22}1~!2[}1222133221|2221[:}",
"11111|111}[11}[112111#:12|/~]}<^[2111|$2}[12222322||11221::[",
"1121}}}}}[[11^_22112/>[1}#,~)};,%!2112$|}[|1||}111}||}21}<_<",
"12|[}}11}[}2|^-11222,][22121|}[}1(2112-[}[}111|121}}}}21|}^<",
"1|[|1111[}}1;:%[1111;(|22111[[}1222211*[}||1212221}11|11|</[",
"2|11|111}|}}/$&!|111'^}2|;[1}}|21^{211$111111}$12||1111||:(1",
"11|||11|}<[[}:.$:222^'|21+%%;,,&@;@2}_-1111||*](2|1111}}|:_2",
"11||111[[[}<>%:_%!111$}22&[://([2:;2[;^|||1[{.#!2|11||}[|_}2",
"111111}[}[}~]211}!%/1{'22),}11222*<1/&111|]&+$}[1}1|[[[}}[12",
"|1111|[[[[[|21|}}1}>=[;{2}&{222}=!2_$[1[)#>_|~#%[}1}}111|}12",
"}111|}<[[[|21}}|2233<=;&,11>#>=@{}]$_~%%{[[}22[:|21|||21|122",
"||11|<[[[}111122233333_-+.)(:(<}]%@*#':1}}}|2|}<1211222|1|22",
"1111|[[[[122222222222221!,'$@%#@ #>/111|}}}}2|}[1211221|}|22",
"1||12}}}}33222211211121[%:}11112$|}}11|}}}|}|:[}131122}|1233",
"11111}}[13222211222322|:*2221112,^[<}1|}}}|}<|11231121|12332",
"||[[[}<}322221|12233222!~}111112(;}[}|1|||[:21123321|1122321",
"1[[}1}<222221|122333321*<|||||}[}#|[|}11|[:12|23332|}1123311",
"|}}||}1222221222233332|#11||||}}|*:<1}11|<}2222333111123321|",
"1122|1222221|111222222:=111|11112!!|||}1|[1122222321122321||",
"2222||1222211122222221~!121|1||11_;21|}2[}122221222212332211",
"1122||}1211|1222222221,^121|}}||11$21}|1[1222221222212322211",
"11221}}|1111221121112}-:1||2|}}||2%}|}1|}2221223332212222211",
"121}1||}12222|121|1121&}||12|}1112>(|}}|}22212222221222321}}",
"2|[12||[|2222222212221$|1|12}1|||1){}[|11221222221212222|}}|",
"}[1221|}12222111|12221$|1112}|[}}|~)[[22111122222121}}|}1222",
"[221}}1222222}|1121221$}}|22}1}||}]'}}32211222212321111111|}",
"21|}}|222222||12}12221#|1132}1|1||^'}12211|221}12211222221<}",
"||}}|12211111|11}1222|&<123}}111|1{)[22111|2211222}}|122[[|1",
"}|}1|12211121}1}12212|>/232[|111|[>{1221111122112112222}|111",
"}|11||2221121}|2231112~!231}|22|[:#}222112212211111122122221",
"}111||2221211}12221112<%33}}12}<[]*1223|122222||22[122|22222",
"|211||2221|11}232221222%:|}|11[}[$_2122}111222}|21}232|22222",
"|211|1222||11|233222221/$}}}21[}-)1112|}1111||}}1}222112221|",
"|21||2122}111|321|22221}-*:121(&>21|1111111||}}}11212122211}",
"|21|12122122221|}|2221}<}) =>##,,22||12221111|1122||222221|}",
"|2112222222211||}13221[|1!!(([[}#121|12221222222||}22211121}",
"[}}}}2121|[}}}1}|2222||11%[|1|}2~!21|12221221|}}}112221111}[",
"[}}|11||}[}||22|2121121}[&|}||121$|22212}[}}[<[}|22221|||||1",
"|2322}}|}<|1112111123221~)1|11222],|11}[:[[[:[|1233222|11}|1",
"322||[||}}1111111}|32221&[22211||1&_1[<<:<<}}12222222211|}|1",
"211}|[}|}|||11111}12222}%1||11||22<%}<}[[[}1|11121111|}||}|2",
"|1|||}11222221221|22221~)1}1|}|1222)'[[{'<1111122}|||[[}}}|2",
"22||1222222222211122}_/&<|||212111</#'#')=2211|2|1|||}111122",
"221222212212222212[$;'>#11}1|}[[[_/__#[<-!2221||111122222222",
"2221||122211122111[$!(;!1|[<::<<<((}|^$*{2211111|11222222222",
"221||121}}[12221111|]'{1}[/(__:<:(<}}}}}|}}}[}|1||1122211122"};
