/* XPM */
static char * 2_xpm[] = {
"60 60 32 1",
" 	c #40212A",
".	c #4F1F26",
"+	c #5E1E23",
"@	c #6C1D20",
"#	c #7C1B1C",
"$	c #891A19",
"%	c #492C34",
"&	c #971A16",
"*	c #A71812",
"=	c #4E323A",
"-	c #B8160E",
";	c #CB1A0A",
">	c #563B44",
",	c #E01C06",
"'	c #844B1B",
")	c #EE3303",
"!	c #C8470C",
"~	c #F14B03",
"{	c #B46812",
"]	c #F35B03",
"^	c #F56A03",
"/	c #F77503",
"(	c #AC8E14",
"_	c #F68003",
":	c #F98E02",
"<	c #BEA80F",
"[	c #F99F02",
"}	c #E49D9A",
"|	c #FBB702",
"1	c #FBCE00",
"2	c #FDE000",
"3	c #FDF000",
"      %%   .,_)#  %>>>>>=  ;/.   %    %  $/)            -/; ",
" ==>>>>>>=  $)^;   %==>>=  ;_            */).           ,[);",
">>>>>>>>>>%  ;^)#          ,{            ;_)@          +~2|~",
">==%%   =>>  #)/,         +){           @)1^&          -//),",
"         >>%  ;/~&      .$,:'          @,[3|)$       .-]/-. ",
"         =>=  $~:)@   #-,~[3'   .@$---!^|331_),,;---,)]1~#  ",
"          >>  .)|[,$*,)/|2333{;*,~]^_:[133[,-**-;,,,,;,^~#  ",
"          %>   ;|3|]]::_[|2333[/)^]~))))_2:&      .    )~#  ",
"               -[32[]),,,,]131~!*&#+.  .;_[;           ,~#  ",
"              $)[[~,&@    -^<'          .,_)+   ====   ,~#  ",
"             -)_^,&       +)%    %%===%  #)^*  %>>>>>  ,]#  ",
"            -~:~;+    %%  .)   =>>>>>>>=  -/).   %%=%  )~#  ",
"           $):)-     =>>  .)  =>>>===%>>% +)^-        .~~#  ",
"           -/];       =>% .~          %>>  -/)@      .-_^$  ",
"};---**$#$*,:)@           +,           >>% @~_,.  .$-~:2[-  ",
"}~_/^]]~~~]:|)            @!           %>=  ,|:;#-)^|2332];$",
"})]]]^/:[2332~-&&&$@.     #!            ==  -[3[]_:/:[2331:~",
"}***--;,)~[331^]]]~));&+  *!                *:31^);**-~13^,)",
"        +&)|3[~)))]^__]);-){               &)[^,$     &^|, .",
"          *^|)#++#&-,))]/_[(              -]_)*       +~/&  ",
"==>>>>=%  @):,        @&;):(             *]_,#    >>  +~]#  ",
">>>>>>>>% .)_#           @,{             ):)@     =>= +]~@  ",
"%%%%%%==%  ,'             $;%.$---*&####*~]*          @])+ %",
"           -'  %=>>>>>%    ;  .)^/^]]]]]^|]#          #^).  ",
"           *'  >>>>>>>>    @   !))~~]^[233[,-*&#+     #/)   ",
" %=>>>>%   *&         %  $&+   +###$&-,)[33:'.          .   ",
"%>>>>>>>  -)*            ;)#           +@1:*      %%        ",
" %%    %  ;_-            )~$             {~@  %>>>>>>>%  +  ",
"          ,_-           @~:,-+     %%    '~@  =>>==>>>= .-  ",
"         +):,           *_3[)@  %=>>>>>  ')-            @)* ",
"         *]1).         +):]),.  >>>===>% $),            &]- ",
"       .&~13:;@       #,_~&              $/)            -/; ",
"%+@$*-;~:232|^),,;--;,)_1)               */).           ,|],",
"})]^/::|233^;**--;,,,-*,_)               ;:~@          @~2|~",
"})^]~))))[3~+          #])              #)1/&         .;_~,;",
"}*$#+.  +,|]$          @~)            .$~|31)&+..   .#;_^-  ",
"         #~_;   %===%  @~)      @&-,))][232|^),,,,,,,)]1~#  ",
"  %%===%  *^)@  =>>>>% @~)      ,/_:::[|23:;&&&*-;;;-&-~~#  ",
">>>>>>>>% .,/;     %=  #])      ,~~);;-;]2:*           ,~#  ",
">>>==%%>>  &])#        &^)      #@.     -][,           ,~$  ",
"       =>% .)_,       #)[).              ;/~@  %>>>>%  ,~#  ",
"        >>  */]-   @-,~|3]#     %==>>>=  +)/;  %>>>>>  ,~#  ",
"        =>% @~1]*&,~_1333|)-  %>>>>>>>>>  *])@     %%  )~#  ",
"         >%  )12_^:_/:|233|_  =>===%% >>% .)/;        +~]#  ",
"             ,12[~,-&&-^21);          %>>  *^~$      #,:^&  ",
"           .;][~-@     ;[_*            >>% +):)@  @-)][3|;. ",
"          +,/^,#       &^~+             >=  ;||,*,~/12333_)-",
"         .,_];.   %>=  &/)              ==  *[31_:^~~^|331_]",
"         #]/;.    %=>  &_,                  -[2[~;&##&,|2]-;",
"---&$####;_)@          *:;                .;~:)-+     #][;  ",
")_/^]]]]^:|)           -_-               .,//,#       +~^&  ",
",~~~]]/|233^;-**&#.    ;/-               ;/^,+    >>% +~]#  ",
"@@@@#$*;~131_^//^~)-#.+~_*              .)_,.     %>% +]~+  ",
"        &]2];*-,)~^/]~~[|-     *),;;--**;]~&          @]). %",
"%%==%%  .):,    .@$*,~_31,     */::____:[1]&          #^).  ",
">>>>>>=  ;:,         +;_3~#    *))))~]_|33|),,;-*$.   &/)   ",
"%%%%%>>  */)   %=%%   .,||)$   ....+@$*,_32_]]^_/])-$@;:)   ",
"     %=  &^~@ %>>>>>=  #]31{           .,1/-$$*;,)~^^]:2).  ",
"         #]]#   %%=>>=  ,|3(   %=====   -/~@     .#&;~|3]#  ",
"         #]^&       >>  $][!  =>>>>>>>  $]~@         @)1[;. "};
