/* XPM */
static char * 3_xpm[] = {
"60 60 32 1",
" 	c #545454",
".	c #585858",
"+	c #5B5B5B",
"@	c #5E5E5E",
"#	c #616161",
"$	c #646464",
"%	c #676767",
"&	c #6A6A6A",
"*	c #6D6D6D",
"=	c #6F706F",
"-	c #737373",
";	c #767676",
">	c #7A7B7B",
",	c #808080",
"'	c #878787",
")	c #8D8E8E",
"!	c #929393",
"~	c #999A99",
"{	c #A0A0A0",
"]	c #A6A6A6",
"^	c #AAAAAA",
"/	c #AFB0AF",
"(	c #B5B6B5",
"_	c #BABBBA",
":	c #BFC0C0",
"<	c #C6C6C6",
"[	c #CACBCB",
"}	c #D1D1D1",
"|	c #D8D9D8",
"1	c #DBDBDB",
"2	c #ECECEC",
"3	c #FFFFFF",
"333333333333333333333333333333333333333333333333333333333333",
"3=#-),>=/})!>$;*  >,*+ +,,;+#*;']_';;-#;,,..!~!/____^;-;!!)-",
"3%**-----$=--*               *--;]'         >]]]]]]]]#*-,>--",
"3^||(%&%  .---     .}=  *-=$ *--,{]~*        ,~)]]]]~%&--=--",
"3_|||'--*@.%-$      >.++----#@--,'~]],         +{]]{>-**-,*>",
"3_||<-----> .        .'{----+ ]---;~]!          #,>&--*---!{",
"3^||_------#  +',. *+)]]#&*@.&-----*,%             +-----,]{",
"3.'{=------=#>-]],>]{]]~*{~@~>-----$         +#-@$#'%==*-'])",
"3#   %------>]']]';]]]]'}||:$------*.       %--;----*+. %-+ ",
"3>.! .=-----)]{)],$',=&)||||,------       .%---------;+     ",
"3> 2  +=----!{).,#     '||||>-----@     +*------------=     ",
"3; )~*  $&&,,  * +#*/  @<||{@----#     @-----*$%-------#    ",
"3.&]]-    ;]'  =*---&   .;*  ,,';     -,-----# **------~'+  ",
"3>{]{@    %]]#@;-----+  =@  $]]]{.    $------>''.&---->]]!  ",
"3!]{'@-%.  !]'=------  .  @%-){!&  .  *-----,<]]@ ,)$%~{~, &",
"3;,+=----*+)])------*   +*-----.      ------*,]]*=]]+  @  $-",
"3;=-------=={*-----;+  @-------#    .%*-----  -- ~]]@  ,'$&-",
"3=---------+*%-----)!- =-------#     .~;-*@ ';--*{]{%>;]]{;-",
"3-=-------*  .*--*++{]@-------=+$$   $]])   +@--->{]{]]]]]{&",
"3'@-------+    @-&  !]@=-----=+*--* @{<(%  ;/]>,~~]]{]]]]]{$",
"3{,$=*,;$           ,{ @;---*  *---+:|||*=>|||<}||:]>{]]]]]~",
"3~]--=-+            %;$&;..  .*---=>||||_]:||||||||^!#{]]]]]",
"3!],--%&=&.         &--*#    %--=-=>||||>-{||(~||||^]>{]]]]]",
"3!],------%         +--+     *--#*--_||]   {|,$}||_]]'']]]]{",
"3'];-*&---&   ##  #  +;-     #--*--={]*     -!#,]^*>;+@{]]])",
"3>:.#  -,>#  *--*(|<$'||_.%%& @#-**$%~    #$%]]]]]]]{* #)~!@",
"3<3<@ ,]]]>  ----(||_}|||)---@> @*---;*  =<|!-~]]]]]]~    ={",
"3<>-- {]]]]* +%=-{|||||||~&--&).&----*   {|||$,]]]]]]{  @+&'",
"3,--$.]]]]])  %>~|||:<|||* %&+ =------#,)||||!]]]]]]]'      ",
"3---$.]]]]]{ )]]]_[($%](> =&$  %-----*)]/|||_~]']]]]!+@     ",
"3+')$.]]]]]!-{]]][|/    +=---% *-----=']]'{),{].*'!=  {     ",
"3$~}. ']]]],]{,![|||;  @;----*')-----+@{]{*$>'{$     .]    $",
"3)---$ ,!)& %{>,||||,  '-----=.%----# $*!]%{]>     =);    %-",
"3!----%      $$&<||[@ %------% .*---+#--;{{]],    .~]{  ;~>-",
"3!-----+      =->{~$&=;------+  .----:;--!]]];     ,]{  >],-",
"3!-----!'     *--% *--------&;!,&--*&-%--&=){*      &;  !;%-",
"3!-----'~      .#  ----=---$;]]]~-=..*--&+----           @=;",
"3%);=--%;%  +)     #-=#.%$+ {]]]]'@ &----*---&          =---",
"3 .>&------*{];     %      +]]]]]{+.-----%#*%           ----",
"3   $------*-]-             {]]]]]%&-----*              ^--*",
"3$#+ *--@**% *+         #/}(!]]]]]+*-----'        @     (2_ ",
"3!--&.%= >{]~=  #**>%.  :|||^!]]]; #-----&     .  {>@    _|)",
"3!---$ >=]]]]]-%-----,@@||||:%;-$   -----+      @*]]{    ,--",
"3!---&@+!]]]]]{--------@<|||]-=   +@%---=$      @-']]+  @---",
"3!---$!~{]]]]]];-------*%(<~---@.*--*$*---@     %--,;  @)---",
"3!--;-]]~]]]]]]#-------*>   &--%-----(>---@  ++ $---#.)!^---",
"3!,|2%>)#=!]]],++=-----)%   .&==-----)>--),.=--+ *--@>]>'*=-",
"3@ @#      .%+    ,;&&@]*      ------$ &*^%%---+  +.#!~    .",
"3        @.--          ~)      &-----$ **$ %---  ,{{, .     ",
"3$ #      !~;=$      $#-{      *-----+*--& .=-& ,]]]]>      ",
"3++! @;>#  #---*@   %--#(*     %----* =---   +  {]]]]~      ",
"3)]];{]]]'@ *--&   #---& @+  ##+---*. $-;)~!=  .]]]]]]{~@  1",
"3{{,~]]]]]~+#&@    %---##--$*--*-]; .$){{]]]],${{]]]]]]]' ;1",
"3]]'{]]]]]]>-=.    ]!,& &------,}|<]]]]]]]]]]]~]~{]]]]{]{ ]]",
"3_]]~]]]]]]*--  ~&:|||~ %-----%]|||[]]]]]]]]]]]]{;]]{=#!{+]]",
"3_]],{]]]]; =%$*@%||||{  *;')# :|||)!]!#{]]]]]]]{]]]{.  .@]]",
"3_]]=']~{]$  .--& (|||*  ']]!&!>]_, {]{ &!]]]{,% '],% .#  ^]",
"3_]{']]&{]!  +--*  @!,   #=)=-=&-={&~]!,;{*{'$   ,*   &-$ {]",
"3{{){]]${]].  &-#           *--#*-[;@;+(|}{]=  +)]]!+ ---=!]",
"3>+]]]]*;{!    #@           =--$)~^       .!]> )]]]])#--;]]]"};
