/* XPM */
static char * 4_xpm[] = {
"60 60 32 1",
" 	c #000000",
".	c #111211",
"+	c #1A1A1A",
"@	c #1F1F1F",
"#	c #262626",
"$	c #2F2F2F",
"%	c #363736",
"&	c #3F403F",
"*	c #484848",
"=	c #505050",
"-	c #595959",
";	c #5F5F5F",
">	c #686868",
",	c #6E6E6E",
"'	c #777777",
")	c #818181",
"!	c #888888",
"~	c #8F8F8F",
"{	c #9A9A9A",
"]	c #A2A2A2",
"^	c #AAAAAA",
"/	c #B2B2B2",
"(	c #B9B9B9",
"_	c #C4C4C4",
":	c #CBCBCB",
"<	c #D4D4D4",
"[	c #DADBDA",
"}	c #E3E3E3",
"|	c #EAEAEA",
"1	c #F1F1F1",
"2	c #F9F9F9",
"3	c #FFFFFF",
"3333333333333333333333333333333<,$#=!<3333333333333333333333",
"33333333333333333333333333333};.;}2_!#&:33333333333333333333",
"3333333333333333333333333333~.'}333333^+'3333333333333333333",
"333333333333333333333333333>&}3333333331=>333333333333333333",
"33333333333333333333333333!*2333333333332&]33333333333333333",
"3333333333333333333333333[+13333333333333<#33333333333333333",
"3333333333333333333333333;~333333333333333$}3333333333333333",
"3333333333333333333333333+|333333333333333-/3333333333333333",
"3333333333333333333333333+3333333333333333;/3333333333333333",
"3333333333333333333333333.2333333333333333-/3333333333333333",
"3333333333333333333333333%<333333333333333&:3333333333333333",
"3333333333333333333333333'!333333333333333+13333333333333333",
"3333333333333333333333333:$33333333333333}#33333333333333333",
"33333333333333333333333333*^3333333333333!)33333333333333333",
"33333333333333333333333333<+}33333333333|+}33333333333333333",
"333333333333333333333333333]#|3333333332=~333333333333333333",
"3333333333333333333333333333~#<3333333|=-3333333333333333333",
"33333333333333333333333333333(+,:233}!.'33333333333333333333",
"333333333333333333333333333333|!  ++$'<333333333333333333333",
"3333333333333333333333333333333(# (3333333333333333333333333",
"33333333333333333333333333333/%*!$+/333333333333333333333333",
"333333333333333333333333333/%=:3{><+/33333333333333333333333",
"3333333333333333333333332^$=:333'~3<+/3333333333333333333333",
"33333333333333333333332{#=<33333*_33<+(333333333333333333333",
"333333333333333333332{#-<3333332.2333<@_33333333333333333333",
"3333333333333333332{#;<33333333_&33333:+<3333333333333333333",
"33333333333333333($>}33|:(]{~),$'333333/#}333333333333333333",
"33333333333333331 .@@@@#%=,)~{/%/3333333{$133333333333333333",
"333333333333333331}133333333333.133333333'*33333333333333333",
"333333333333333333333333333333[$3333333333*(3333333333333333",
"333333333333333333333333333333^;333333331~@}3333333333333333",
"333333333333333333333333333333'~333333|)+>}33333333333333333",
"333333333333333333333333333333=(3331]*+'}3333333333333333333",
"333333333333333333333333333333$[2/-.=^2333333333333333333333",
"333333333333333333333333333333.!+%~|333333333333333333333333",
"333333333333333333333333333332.([333333333333333333333333333",
"33333333333333333333333333333}#33333333333333333333333333333",
"33333333333333333333333333333<%33333333333333333333333333333",
"33333333333333333333333333333]%33333333333333333333333333333",
"33333333333333333333333333332+%33333333333333333333333333333",
"3333333333333333333333333333_&+33333333333333333333333333333",
"3333333333333333333333333333!)+13333333333333333333333333333",
"3333333333333333333333333333>]*/3333333333333333333333333333",
"3333333333333333333333333333*_{>3333333333333333333333333333",
"3333333333333333333333333333%<|+2333333333333333333333333333",
"3333333333333333333333333333#}3-{333333333333333333333333333",
"3333333333333333333333333333@|3:#333333333333333333333333333",
"3333333333333333333333333333+133*^33333333333333333333333333",
"3333333333333333333333333333+133_+13333333333333333333333333",
"3333333333333333333333333333+1333,;3333333333333333333333333",
"3333333333333333333333333333+13332${333333333333333333333333",
"3333333333333333333333333333+13333[.:33333333333333333333333",
"3333333333333333333333333333@133333^@|3333333333333333333333",
"3333333333333333333333333333+1333333'*2333333333333333333333",
"3333333333333333333333333333.33333332&'333333333333333333333",
"3333333333333333333333333331@33333333|@/33333333333333333333",
"333333333333333333333333333<%333333333{=33333333333333333333",
"333333333333333333333333333]>33333|_{*#_33333333333333333333",
"33333333333333333333333|23}*]3333_$='(2333333333333333333333",
"3333333333333333333333<@@@@;23333333333333333333333333333333"};
