/* XPM */
static char * 5_xpm[] = {
"60 60 32 1",
" 	c #000000",
".	c #111111",
"+	c #191A19",
"@	c #202020",
"#	c #262727",
"$	c #2E2E2E",
"%	c #363736",
"&	c #3D3E3E",
"*	c #464646",
"=	c #4C4C4C",
"-	c #535353",
";	c #5B5B5B",
">	c #636363",
",	c #696969",
"'	c #727272",
")	c #7A7A7A",
"!	c #808080",
"~	c #898989",
"{	c #919291",
"]	c #9C9C9C",
"^	c #A6A7A7",
"/	c #AEAEAE",
"(	c #B6B6B6",
"_	c #BDBDBD",
":	c #C6C6C6",
"<	c #CDCDCD",
"[	c #D5D5D5",
"}	c #DDDDDD",
"|	c #E4E4E4",
"1	c #EBEBEB",
"2	c #F2F2F2",
"3	c #F6F7F7",
"<}111|1|[|2222211221||}}|22|2111122222222|221|||122}_[}[<111",
"|11||||}1|1112211221||}}22212112222223222|1||2}1221_:}}[[211",
"11|111111|1222121121|}[1322|2222222222221}|111|21}<_[}}|1211",
"21122112122221221121|}}2222|211!$+ .+$&^1|12111}:<<[|||22211",
"111122222111}12111|||[12222}21,        >1|11|||<[}}|11222211",
"11111121|11||1112||||}22332|12#        *|||1|[1|}}|111222211",
"|1111221112|1}122}|}}123332121         #1111[}2}[}1111222211",
"|11222211111}|222}}1222333111[          +@@$-{11[}11112211||",
"11122222111}|1221}}222332/{'>#                ]1[|2222211||1",
"1112222211||1121[}12223(+                    .:}122222212122",
"1|12122211|111[[}123233-                   +)[|1132222221223",
"1||11232|}[[<<||11222321:!; .      ..@%=>)$||||}222122221213",
"|1||122[}}}}|12|2223321121[&|1|)!111>122}|$|||||221112222112",
"111122|121112122323322||11(;|1|[=_2[-]22}1$}||||32111221|1|[",
"11111}1121[|21|2222221}122_-1|1'(22}1(|2}}#222133221|2221[:}",
"11111|111}[11}[112111|[122|$||||}21112_1}[#2222322||11221::[",
"1121|}}|}}[11[|221122|[1112$[||}}22:{;#|}:&1||}111}|||21|<_<",
"12|[}|11}[}2|[1112221|[2222!!}:)'>;'(|,|}!,111|121}|}}21|}/<",
"1|[|1111[}}1[}2|111111|2211|#_)}22221)<}}$_1212221}11|11|</[",
"2|11|111}|}}}12||1112|}21121]$/)2232<,11~-1112212||1111||:(1",
"11|||11|}[[[}221|2222||2212|[)&-^22[;}1^@[1||1112|1111}}|:_2",
"11||111}[[}}1211}11111|222|[}1{#&;;)<[,%:|1}|2212|11||}[|:}2",
"111111}[}}}}2211|122112221[}112[-.&%+${11||}|21[1}1|[[[}|[12",
"|1111|[[[[[|21|}}12333322}|22222(..(|11221||12}[|}1}}111|}12",
"}111|}<[[[|21}}|22333332|221}}^&%;%#<1121}[}22}[|21|||21|122",
"||11|<[[[}1111222333332211}[{$%/1'{]#[11|}}|2|}<1211222|1|22",
"1111|}}}}122222222222221|[]$%/222-(1]#[|}|}}2|}[1211221|}|22",
"1||12}}}}33222211211121[{$&(11122#}}1]#[}}|}|:}}131122||1233",
"11111}}[13222211222322^#*_221112[&}[}1{%[}|}<|11231121|12332",
"||[[}|<}322221|12233(%-:|}111[:_''}[}|1)&|[:21123321|1122321",
"1[}}1}<222221|12233] =;=&%%%%=;>#]|[|}11>;:12|23332||1123311",
"|}}||}1222221222233|((/:|1|||||}$}|<1}11|*~2222333111123321|",
"1122|1222221|111222222||111|111|$1}||||1|<@122222321122321||",
"2222||1222211122222221}|121|1||(;1121|}2:;*22221222212332211",
"1122||}1211|1222222221}|121|}||~~1121}/=${122221222212322211",
"11221}}|1111221121112}}11||2|||>^22[!$=/}2221223332212222211",
"121}1||}12222|121|112111||12|}1=_]*$!<}||22212222221222321}}",
"2|[12||[|2222222212221||1|12|1|$>'_}}[|11221222221212222||}|",
"}[1221|}12222111|12221||1112}|[@}|}}[[22111122222121}}|}1222",
"[221|}1222222||1121221|}}|22}1|#||}}}}32211222212321111111|}",
"21|}}|222222||12}12221||1132}1[@||11}12211|221}12211222221<}",
"||}||12211111|11}1222|||123}}1;@|11}[22111|2211222}}|122}[|1",
"|||1|12211121}1}12212|11232[|1@#|[[<1221111122112112222}|111",
"}|11||2221121}|223111222231}|<**(:[|222112212211111122122221",
"|111||2221211}122211122233}}1/;')[}1223|122222||22}122|22222",
"|211||2221|11}23222122212|}|1]'_%}12122}111222||21}232|22222",
"|211|1222||11|23322222111|}}2~!}%<1112|}1111||}}1|222112221|",
"|21||2122|111|321|22221}}||12!~}{>1|1111111||}}}11212122211|",
"|21|12122122221|}|2221}<|1||1){}1@[||12221111|1122||222221|}",
"|2112222222211|||13221[|11|12){|2],1|12221222222|||22211121}",
"[}}}}2121|[}}}1||2222||11|1|1){222*/|12221221|}}}112221111}[",
"[}}|11||}[}||22|2121121||1|}|)]222}#[212}[}}[<[}|22221|||||1",
"|2322|}|}[|1112111123221111|1']2211^%|}[:[[[:[|1233222|11}|1",
"322||[||}}1111111}|3222111222){||111';<<:<<}}12222222211|}|1",
"211}|[||}|||11111}122221|1||1']|2222}%{}[[|1|11121111|}||}|2",
"|1|||}11222221221|22221||1|1|;/12221[:#_||1111122}|||}[}}}|2",
"22||122222222221112223221|||2*<111[(_|(&[|2211|2|1|||}111122",
"2212222122122222123222||11}1|@[}[:/__~&>[22221||111122222222",
"2221||1222111221112222121|[</$<<<('#&,/}|2211111|11222222222",
"221||121|}[1222111123211:@@##]:<:_<}}}}}|}}}[}|1||1122211122"};
