/* XPM */
static char * 6_xpm[] = {
"60 60 32 1",
" 	c #000000",
".	c #111111",
"+	c #1E1E1E",
"@	c #2A2A2A",
"#	c #393939",
"$	c #4B4B4B",
"%	c #555555",
"&	c #5E5E5E",
"*	c #646464",
"=	c #6B6B6B",
"-	c #717171",
";	c #787979",
">	c #7F7F7F",
",	c #868786",
"'	c #8D8D8D",
")	c #949595",
"!	c #9B9B9B",
"~	c #A3A4A3",
"{	c #AAAAAA",
"]	c #B2B2B2",
"^	c #BABABA",
"/	c #C1C1C1",
"(	c #C7C7C7",
"_	c #CECECE",
":	c #D4D5D4",
"<	c #DBDBDB",
"[	c #E1E2E1",
"}	c #E6E6E6",
"|	c #E9E9E9",
"1	c #EEEEEE",
"2	c #F3F3F3",
"3	c #FFFFFF",
"_<|||}|[:}2222211121}[||23333311111222222}12|}[}112<^:<:_}1|",
"}}||}}|[|}|11121|121|}{;;>;;,~}1122222222[|}[1[122|^(<<::21|",
"1||||||1|[11111111211-        ~3121222211<}1|1}2|[(^<[<[121|",
"11|1111111221122|111:.        >3|11122211[|2||1[(_(:[}}2221|",
"111111121111[|2|||}|^         -323331211|[|1}}}(:<[}||12111|",
"|111|11|}|1[}1||2|}2{         @>-;)^[21[}}}1[<|[<[}|||22121|",
"}111|12||11||[232:_/$               @<2[||1|:<2[:<|1||2111||",
"}|1112211111<|(&#+.                 .:2[[}[<:}1|<<11|1111|[}",
"||11122111|[}<+                    @]2|}|}}1111|<}112221|}}|",
"|||112221|[[11{%+            ...@={}|}||1121[[[[}22222211122",
"1}|112221||||}}|{-_/^/)*^^;~(_:_;22}[[|221}<[[[}122222211122",
"|}}11121[[::__<1;(3333:'33;<21}2'~2}}}121[[}|[}[221112221212",
"}|}}|21<<<<<[|2<;12222}<11~<||}}]>3}[|21[[|[[}}}22||12221}11",
"111111}|21||1|2:>32331[|1121}}}|^>3[}122<||<[}[[22|1|121}|[:",
"||111[|111<}2}|<;32|<1:|111|}}1|~)3[1122<<1122122221|2111:/<",
"||111}111<:|1[<1=:2<=[[}111||}~1>/2}1122<:12222222}}1112|((<",
"|12|[<[}[:<1|<<3)>33{*(233321,~/=22|1121[:}1}}[|1|[|}[2|}_^_",
"|1}:<[}1<:<1|:|11;{32^-,~]^~-]:%_221}22}<:[|||}12|<[[[1|}<{(",
"1}<[||11<<}1<<2[1|='<22_~,){/{$^3122|11<<}}111222}<1|}1|}_]:",
"2}||}|1|[[<[:12[[22{''!//_/!=-_31222||1}1||1111|1}}211|[}(^|",
"||}}}|1}<__[]]3[[1232:'='$!{/|211222[}||||1[:2112[}1|1[<|(/2",
"11}}|1|<::[/**22||1||3~{3,(}[||11222<}[[}13'~32|1}|1}[<<}/<2",
"|1|}||[:<<<<^#='/232|2~{3]-|}122222}<232<^)#-(2:|[||:::[[:|2",
"[11|}}::<:<[,!<'&*![33!^3[=<2122333}:]'=*;$;[2[:}[}[<}11}<|2",
"[}1|}<_:::}}(|}22('=;/,^13~'2|3|_!>=*;!([1(=)2<_[2|[[}21}122",
"}}|1}__::<|11|122332_~&^3|<&~'-*=>!(}232}<[}_}<_|2|1111}}}12",
"|||1}<<<<|222222221223~{1_['${^[21|1|}}[<[<[2[<:|21|221[[}12",
"|}}11<<<<222221|111||3~'<:<|;}321}<[||}[[[}}[(<<|21}12[}1222",
"|||||[<:132221||122223]>2113{>3121<_<1|[<<[<:[||221|11}12222",
"}[<:<[(<22222|}1223323:;1[}|2=_21|[:[||}}|:(21|22211}|11222|",
"|<<<}<_22222|}12222222}-<}}[2]-|<[}<[[||}:/|2}12221[[|12221|",
"}<[}}<|22222|1222222212-/2[}}1=]1|}:}<||}(<2122222|}112222|}",
"|112||222221}1|12222212~'3}[|2(-2|[}|[[1[:|11222222111222|}}",
"1221}[122211|112212211}<=11}|[2>]2|21[[1<[1122112221112221|1",
"||22}[[1211|112222222|<2'~2}[[|_=112|<[1<}1121112222|1222211",
"|122|[[}1|||22|121111[[1}*<2}[[2,{3}}<|}[1221122222212222211",
"12|[1[}[}2111}|1|||11}|}2!'3[<|2:;2[}<[}[22112222211222221[<",
"2[:|2}[<[12221211|1221}}|1=/1[|[2>^|<:}2}22|122222312222|[[[",
"<:122|[[|22221|1}|2221}}}1:&:|:<|]>|::12|11|22222<~||[[[}122",
"<221[[|122222[}1121121[<[[3/&[1[}_;}<[222|1222|2|*';(2|}|1}<",
"21}<<}221112}[12[|1221}}}123{*^22:%1}|211}}22|}1&]3_(2122|_<",
"}}<[}|221|||1}1}<1122}[[|23<|:=-{;&;_32||1}112|&{3<}1|22<:}1",
"[}[1}|221}|21[}[|2212}|1122:[21(%-}!=/31|1|13<%~3||2222<[111",
"[[1|[}222|12|<[1221|121123|<}112>{:1<>'_233})&^2|||122|12211",
"[|1|[}222111|<|2221|121222[[|2}/*_[123/;>)>$'11<21<|22|21221",
"}111}}2221}1}<12221112112}[}11[~,||1|23}_/^[32[}2|[221}22222",
"[21|[|222}}1|}122221121||}[[2|};]21||1}<2221}}[[1[122}|2221}",
"}21[}2122[|11|221}11211<<}[121_=[21}||||1|}}}<<<|1211|1211|[",
"}1}[12|22|12221}<}2221[_[|||12~>321}}1121111|}|122}}222211}[",
"|1||211122211}}[[|222|:[1|||12;]321|}|122|122221}}[1221111}<",
"<[[[[1111}<<<[1[}2222}}1}[|}1[*}2221}11221121}[<<11222||||[<",
":<<}11}}<_<}}11}111111|[[1}<1(;312211112<:<<:(:<}22221}}}[[|",
"}1221[<[<_}1|11|1||2221|||}}2:;211|}|1[:/:::(:}1222211|||<}1",
"221}}<[}<<1|||1||[}22221||1112-(1}||1:(((_:<<|2222222211}<}1",
"11|[}<[}<}}}||11|[122221}|||}2)'3112<(<:::[}}|1121}||}[}}[}2",
"}1}}}<}|121211111}22221[}1[}}}_-212|_:<[[[11|1122[}[}::[<[}2",
"12}}|12222212221||2222111|[}1|3;(2_]/}|}:}111|}1}}}}}<}|||22",
"12|1221121122221|12222||||[1}[1{>_~^[1[::1211|}[|||122222222",
"1221}}}121|}|2211|222211||:__(/)&]]<|||<}2211|||[11121112122",
"121}[|21[<:}22211||222||[:{^>%&>^^_[<<<[[[<<:<||}}1111111|22"};
