/* XPM */
static char * 7_xpm[] = {
"60 60 32 1",
" 	c #000000",
".	c #0F100F",
"+	c #1A1A1A",
"@	c #202121",
"#	c #282928",
"$	c #2F302F",
"%	c #393939",
"&	c #414141",
"*	c #494949",
"=	c #515151",
"-	c #575757",
";	c #606060",
">	c #676767",
",	c #6F6F6F",
"'	c #787978",
")	c #818181",
"!	c #8B8B8B",
"~	c #919191",
"{	c #999A99",
"]	c #A4A4A4",
"^	c #ABACAB",
"/	c #B4B4B4",
"(	c #BBBCBB",
"_	c #C4C4C4",
":	c #CACACA",
"<	c #D3D3D3",
"[	c #DADBDA",
"}	c #E2E2E2",
"|	c #E7E8E8",
"1	c #EBEBEB",
"2	c #F1F1F1",
"3	c #FFFFFF",
":[11|||}<|2222211221|}}[|21|2111122222222|221}}|122}(<}<:|11",
"||1||||}|||112211221|}[}33323222222222222}1|}1}1221(_[}<<21|",
"21|11111|}1222121121}}}|<_(/_:<|222222221}|111}21}:([}[}121|",
"1111211212222122112|}}/$     . )312122221}|21|2}:::<}}|2221|",
"111122222111}12||1|}}}*        -2|1112211}|2|}|:<[}|||22221|",
"|111112|||1}}11|2|}}}<@        *3233221}|}|2}[1}[}}11122221|",
"|1111221111|1}122[}}|}.        @^^]/:22}|111<[2}<}11|12222||",
"|12222211121[|223|[}1{               &:1}|}[<|21[}1111211|}|",
"|1112222111}}122]=%#+                 ^2|||12211[}2222211||1",
"1112222211}}113-                     )1|2122}}}}}22222221122",
"1}|2222211111}[!%.                 ':11222|[}}}|122222221222",
"|||11222}}<<:<}2|:/>$)'''''')!~{^[>{3}121}}||}|}222122222212",
"|1||122[[}[[}12|223{'3333333222||3(-||22}}1}}}|}221|12222|12",
"111122||21112122223)'3[}22||}1<}[2}%}222[|1[}|}}22111221||}<",
"11111}1211[}2||2223!'3<}:]:2<~{|[3}%}222[[1222222221|2222<_[",
"||111|111}<12}[1213!>2<2_^11|:}1:}(*2222}<12222222||1122|_:[",
"112|}[}|}<[11[}22|2(*|}12321|1}2):!>3121}<|1||}|1|}||}2|}<(<",
"12|<[}|1}<[1|<12122|%</}3111}[}_=1&(222}[<}1|||22|[}}}2||[^:",
"1}[}|111[[}1[[2|12|3;)[,(332|}(=<)-3|12[[}|121222|[1||11|:^<",
"2||||11|}}[}[12}|112:@<}>,]^{'>[/@}21|1|1111|1212|}211|}|_(1",
"11|||11|[<<[}22|}2223!@[3_~''^3/+(32}|1|111|}1112}|211}[|__2",
"11|||11[<<[[|21|}12112!$!}1}1<;$_322[||}}||[}2211}11|}[[}_[2",
"121|11}<[[[[2211}|21113<>$$*%#'|323|[||11||}|21<|}11<<<}}<12",
"}11|||<<[<<}21|}}12223233<<, %}3322}111221|}|2}<|}|}[|11}[12",
"}|11|[<<<<}21}}|22232222}3{#$;$=(121||121[<}22[<}2|}}|21|122",
"}|11|<<<<[11|122222222213!@_=(1,@*(22|11}}}|2|[<|211222|||22",
"1||1|[[[[122222222222213~+(2;!33},@=(22}[}}}2}[<|21|221}}|12",
"1||12}[[}22222111211123~+(}2!>3|22<'$=/11}}}}:[[121|22}|1222",
"|||11}[<132222||222223^+:312:*3332}|<)$*^|1<<}|1221121}12222",
"|}[<}}:[222221|122323_@(2}|1|$!^/_:_[2|~&>/:21|22221||11222|",
"|[[[|[<222221|122223}@^3}}}}2=&>;==***=>;..}3|22221}}112221|",
"}[}||[|2222212222222&!3}2|}}3)'3|1}:<:_]{~]12222221|112222||",
"|122||222221|111223~-3|}12|}2/=21|}|1|132}2222222222122221||",
"2222|}122221|112213:%'<2211|1<%}2|121}}1[}122221222112222111",
"||22|}}1211|12222223<;$>_321}}&_2112|[}2[|222221222212222211",
"|122|}}}111|2212211122:)&=~}23-{212|}[||}1221222222212222221",
"12|}1}|}|2122|12|||11}13}];&-^;!322}|[}|}22212222221222221}[",
"2}<|2|}[}2222222212221|}|23}~>%'2||}}<|2|221222221112222|}}}",
"[<122|}}|22221|1||2221|}|||213);2[[[[<22112122222121}}}}|122",
"[221}}1122222}|1122221}}}|22[2~;2}}}[}222|122211222|111||1|[",
"22|[[|222222|}12}11221|}|131[3]&1||1}1221||221}1221122222|<[",
"|}}}||2211|11|1|[1222|}}|23}[3^ ]2|[<221|1}2211222}}||22[<|2",
"}}}1||221|121}|}12212}|1222<}3~+,}::122|1211221121|2222[}111",
"}}11}|222112|}}22211122223|[}3';=_<|22211221221|111222|12221",
"}11|}|222121|[|22211122222}}|2*{%_}1122|122222}}22[122122222",
"|111||2221|1|[12222122212}}}2_%<%_21122}121222}}2|}222|22222",
"}211}1222|}11}2222222211|}}}3,,1&:2|12|}11|||}}}1}122||2222|",
"}21}}2122}111|221|22221[[|}2}$(}*_2}|1|111|||[[[|1211|22211}",
"|2|}12122|22221|}}2221}<}|}3'-1}=(3||12221111}|122|}222221|}",
"|2|1221222211||}}1222|<}2|1[$:}|-/3||12221222222||}1221211|}",
"[}}}}2221|[[[}1}|2222||2|}3=!2<2-/31|12222221}}[[12222111|}[",
"<[}}21|}}<[}|22|2111121}}3)&2}13=/311122}<[[<:<}|22222|}}}}1",
"|1222}}}[<|111211||2222|2(#[2123=/2|11}<_<<<:<}1222222|1|}|1",
"222||[}|[[111121|}|22222[#/311|1=/2|2<::_<<[[12222222211|[}1",
"21|}|[}}[||}||111}122222&)3|||}1-^32}:[<<<}||12121|11|}|}}|2",
"|1|}|[|1122221221|22223,=3}||}}3;{3|<<[}}}1111122}}}|<<}[}|2",
"22||122222222221112223_#13||2113,)|/_}||<|2211|1|||||[|11122",
"2212221122122222|22222<&=!(||}[1'=((|2}<<22221}}11|122222222",
"2221|}|222||12211|22222})-%&/::<]#^<[[|[}2221|||}12222222222",
"221}}|21}[<|2221111222112}^](__:<>#&$=[}}}[[<[||||1122111122"};
