/* XPM */
static char * 8_xpm[] = {
"60 60 32 1",
" 	c #000000",
".	c #111111",
"+	c #181918",
"@	c #202020",
"#	c #2A2A2A",
"$	c #303130",
"%	c #393939",
"&	c #414241",
"*	c #494949",
"=	c #505050",
"-	c #575757",
";	c #5F5F5F",
">	c #686868",
",	c #6D6D6D",
"'	c #787878",
")	c #7E7E7E",
"!	c #868686",
"~	c #8F8F8F",
"{	c #999999",
"]	c #A1A2A2",
"^	c #A9A9A9",
"/	c #B2B2B2",
"(	c #BBBBBB",
"_	c #C4C4C4",
":	c #CBCBCB",
"<	c #D3D3D3",
"[	c #DADBDA",
"}	c #E2E2E2",
"|	c #E7E8E8",
"1	c #EBECEB",
"2	c #F1F1F1",
"3	c #FFFFFF",
":[1||||}<|2222211221|}}[|22|2111122222222|221}}|122}(<}<:|11",
"|||||||}|||112211221|}[[22212112222222222}||}1}1221(_[}<<21|",
"2||111|1|}1222121121|}}2332|2222222222221}|111}21}:([}[}121|",
"11112112122221221132[:(]!)<12122222122221}|2||2}:::<}}|2221|",
"111122222111}|2||1]=+.    )2|1|||12212211}|2|}|:<[}|||22221|",
"|111112|||1}}1||3~        *122332|22121}|}}2[<1}[}}11122221|",
"|111|22||11|1}123-        .<}(^/:1||122}||3(=}2}<}|1||2222||",
"|12222211121[|222*         @.    ;|}111}}|}&{21|[}1111211|}|",
"|1112222111}}|122=               -1}|1|||2=-3111[}2222211||1",
"1|12222211}}1232_#              *}1|}|||3{ *|}}}}22222221122",
"1}|222221||2|^,&.             %]22|}}}|3(  #[}}|122222221222",
"|||11222}}[/$            .@*!'*1|||||}2[%>,]1}|}222122222212",
"|1|||22[[}<#       ..%,'{':323-)2|1|}2}%{331}}|}22||12222|12",
"111122||211_{,,'!#]2}2223'>3}2(*}22}2}%]1}|[}|}}2211|221||}<",
"11111}|211[|32231=23}><|2<~2:|[%<21|}%{3<[1222222221|2222<_[",
"||111|111}<11[<2_=||2=~2123!-2<%[23[$~32}<12222222||1122|_:[",
"|12|}[}|}<[11[}2}%|22(/333!%<2]*|3_#~321}<|1||}|1|}||}2|}:(<",
"|2|<[}|1}<[1|<112-{3|[^^~;-[2}%^2'$/222}[<}1|||22|[}}}2||[^:",
"1}[}|111[[}1[[212<#/3(-,'/33<--~%>|3|12[[}|121222|[1||1||:/<",
"2|||||1|}}[}<2|'}3($):|332('..%;_3221|1|1|11|12|2|}211|}|_(1",
"1||||11|[<<[}22*'33}'&*;-& .;!:32122}|1||11|}1112}|211}[|__2",
"11|||1|[<<[[|22[$_223}_([].+:3212222[||}}||[}22|1}11|}[[}_[2",
"|21||1}<[[[[22|2*$2112323!>%-312223|[||11||}|21<|}1|<<<}}<12",
"}11|||<<[<<}21|[$ '323323;](.[32222}||1221|}|2}<|}|}[|11}[|2",
"}|11|[:<<<}21}|< @#(3222|=_3#'311}12||121[<}22[<}2|}}|21|122",
"}||1|:<<<[|1|121~}_$1322|&:|~#121}}|||11}}}|2|[:|211222|||22",
"1||1|[[[[|222222323';312:%:<}#]32}}||||}}}}}2}[<|21|221}}|12",
"1||12}[[}222222||112%]3[{=}}3'*32|}}|1}}}}}}}:[[|21|22}|1222",
"||||1}[<132222||2223:#:2~,312<+[22[<[1|}}}}[<}|1221|21}12222",
"|}[<}}:[222221|122323~*3''3||3*!3|}<}|||}|<_21|22221||11222|",
"|[[[|[<222221|12222223=!'!2}}2!%|}|[}}|||<_|2|22221}}112221|",
"}[}||[|22222|222222222}=+/1}||:+:2}<|}11|:}2222222||112222||",
"|122||222221|111222221|[^1|}|12&!3[}|}}1}<|12222222212222|||",
"2222|}122221|112222221}|321||}2'&2121}}2[}222221222112222111",
"||22|}}1211|1222222221[|12||}}1/+[22|[}2[|222221222212222211",
"|122|}}}11||221221112}}11|}2|}}}@/3|}[||}1221222222212222221",
"12|}1}|}|2122||2|||12||||}12|[|3%'3}|[}|}22212222221222221}[",
"2}<|2|}[}22222222|2221||||12}}}2-*2}[<|2|221222221112222|}}}",
"[<122|}}|22221|1||2221|}||12}}<2,@}[[<22112122222121}}}}|122",
"[221}}|122222}|1122221}}}|22}|}2'.<}[}222|122211222|11|||1|[",
"22|[[|222222|}12}|1221|}|131}2}2'.(2}1221||22|}1221|22222|<[",
"|}}}||2211||1|1|[1222|}}|23}}2|2,%~1<22||1}221|222}}||22[<|2",
"}}}1||221||21}|}12212}|1222<}11}*)-<|22|1211221121|2222[}111",
"}}1|}|222|12|}}2221|122223|[|13^=(%}22211221221|111222|12221",
"}11|}|222121|[|2221|122222}}|22-)|&_222|122222}}22[122|22222",
"|111||2221|1|[12222122212}}|12_$_2,~322}121222}}2|}222|22222",
"}21|}1222|}1|}2222222211|}}}13';|3];21|}11|||}}}1}122||2222|",
"}21}}2122}|11|221|22221[[|}12}$(|3<&|1||1||||[[[|1211|2221|}",
"|2|}22122|22221|}}2221}:}||}3!=1122*_21221111}|122|}222221|}",
"|2||221222211||}}1222|<}2||2[$(|223>!31221222222||}1221211|}",
"[}}}}2221|[[[}1}|2222||2|}|2*'11223{>31222221}}[[122221|||}[",
"<[}}21|}}<[}|22|211112|}}|3'*2|2223<&122[<[[<:<}|22222|}}}}|",
"|1222}}}[<|111211||2222||2/#[222111|&:|<_<<<:<}1222222|1|}|1",
"222||[}|[[1|||2||}|222212[#/31|||||3,)[<:_<[[|2222222211|[}1",
"21|}|[}}[||}||111}1222222&)3||}}2213~;2]*+_1|12121|11|}|}}|2",
"|1|}|[|1122221221|22221|' /2}}|12222/%-&%&|1|1122}}}|<<}[}|2",
"22|||222222222211122222<$);211211|</_#'{%[211||1||||}[|1|122",
"22|2221122122222|22222|2,-*}1}[[[_^(2,*$(2222|}}|||122222222",
"2221|}|222|||2211|222212|= {:_::://[2]#_12221|||}12222222222",
"221}}|21}[<|22211||2221||[$>:(_::(:}[[}|}}[[<[||||1122111|22"};
