/* XPM */
static char * 9_xpm[] = {
"60 60 32 1",
" 	c #000000",
".	c #111111",
"+	c #1C1C1C",
"@	c #232323",
"#	c #292929",
"$	c #343434",
"%	c #414241",
"&	c #484948",
"*	c #525252",
"=	c #595959",
"-	c #626262",
";	c #696969",
">	c #707070",
",	c #797979",
"'	c #818181",
")	c #888888",
"!	c #919191",
"~	c #999999",
"{	c #9FA09F",
"]	c #A8A8A8",
"^	c #AFAFAF",
"/	c #B6B6B6",
"(	c #BDBDBD",
"_	c #C5C5C5",
":	c #CDCDCD",
"<	c #D5D5D5",
"[	c #DDDDDD",
"}	c #E4E4E4",
"|	c #EAEAEA",
"1	c #F0F0F0",
"2	c #F3F3F3",
"3	c #FFFFFF",
"<}|||}|[[|22222||12|}}[<121|1||1111122221}2||}}|112<([[<:|||",
"||||}}|[|}|||12||111}[[}221|2||1222222221[|}}|[122[/:[[<[2||",
"1|||||||}}1111|1|12|}[<1221|2132}}}|1221|[|1|||2[[(([[[|22||",
"11|11|111212||21||1}}<}2221}11!%+..@$%/3|}|2|||<_::<}}|211||",
"1|||11121|1|[12||||}[<12221[3]        >3}}|1}[[:[[}|||1211||",
"|||||11}}||}|||12|}[[[12222[3>        -1}}|1[[1}[[||||2111||",
"||1||21|||||}[122[[}}12222||2*        &}[}||[}2[<}||||2111||",
"||111221||1|[|122[[1222233331$         ###$&]1||<[|||11||}}|",
"|||112211||[||12}<[22133:~,;&               +}1}<|112221|}|1",
"|||11222||[|112}<[1222|-                    >|[[|2222211|122",
"|}|11122||||}[<<[|2223:.                  %{|}}|12112211|222",
"}|}||12|[<<::<}}|122222[{>$+#@+..@#++%=>{=(3}}}}221|122112|3",
"|||}|2|<}}}||12|222332||33':}[[:><2~!3232(,|[}}}21|||221|}1|",
"1|111||121|}1|2222222|[|2:,2}|||'[3:<211<}><||}|3111|11|||<<",
"|||||[111|<|1}[122222}<|3_)3}}|[[2||1122<|,<3222221||1111:_}",
"}|11|}|||<<1|[[11|||1}<12<'1|||}}2|||12|<}':21121|}|||11}(:[",
"|11}[[[}[<[||<}21112|}<|11,[_<}<[22}|3'(|:>}|}[|1|[|}[2|}:/<",
"||[<[}|1<<[1}<1||221|[[113^!_*:122331!,}}!)2|||12}[}}}1|}<]<",
"|[[|||1|[[}|<}2}|||||}}2||2>]/-]<<(~;)1|(>[111212}[|||1|}_^}",
"1|||||1}}[<[[12}}1112[}2||2[-!:]!''!:31];<2||11|2}|1|1}}}((2",
"||}}||1}<:<<}21|}2222}}21|1}<!-!]_[[({)!}1|}}21|2[|1||[[}(:2",
"|||||1}<<<[[12|[}|1||}}221[:}2[]!&,>-_<2}}}<2(:1|}||}[<<[_}2",
"|1||||[<[[<[21|)_321|1212}:}|1233'3_)3||||||2-;<|[|}<<<}[<|2",
"}11||}<<<<<|2|]=*([33332}[|2||23()3(,2|132<~-$]<}}|[[|11[[12",
"[||||<:<<<}1}[[|-,!'~([1233|<[13,_3<'32|/,;![{'<|2|}}|1|}|22",
"}}||}:<<<[1||1}'!33[(~''){^_[23:,}}<,(),'/[22|^:11|1111}|}12",
"|}|1}[[[[12222|:2212332<^!,>,~_>(|}<&!/<||[||[[<|2||12|[}|12",
"|}|11[[<}3222111|1||12|<[|1|:/>;3}}(,3|}[[}}<:[[12||11[|1222",
"||}}}[<<22221|||122222[}1||123':3|[]'3}[[[[<<||122||||}12221",
"|[<<}[_}22221||12232221|}[|}2/,2|}|~!2|}}|_<3||2221|}||1222|",
"}<[[|<<22221||12222222|||}}}|;_[[[2)^|||}::22|2222|[}|1222||",
"}[}|}}122221|221222221}|1|[2]'2[||}>:}||}:}1122222|||1222|||",
"|121}|22222||||222222|}|11|};<111|:;}[}|[[||2222222111231|||",
"1121}[|2211||11221221|[|||3~!2[||2^!3[}1<}11211|2221|12221|1",
"||11}[[|1|||111222212}[|11[-<}}}|3,_1<}1[|1111112222|12221|1",
"|121|[}}||||1||11||1|[}|}1)~2[}}2_,1[[|}}112|1222221122222||",
"12[}|}}[|212|||1|||11||||[>|}[||2,:|}[}}}2211222221122221}[[",
"2[[12}}[}1222111||222|}}2~~3[}[1{'1[[<|1|21|12222||11111|}}|",
"<[221}}[23322|||}1212|}}|;<2[[[:;<[<<[21|||12112112|[[[[|122",
"}21|[}|3:,<3|[}1|1|12|[}(,3|[2};_|[[[}211|1221||221|11|||1[[",
"2|}[[|3/>]=<|[11[|122|}1(~3[||-]2}||[221|||22|[122||||122[:|",
"}}[}}|2[|3(=[||}}1222[[2),3[(;^2}||:[22}||}121|121[}}|2|<[|2",
"}}}|}|221}3(=_2[121||1|)!!,,>:2|[<:<122|11|122||2||2221[|1|1",
"[}||[|222|13(*/332|23_>{32=(221[::<|122|111|22|}||||2||22111",
"}|||}|222|||2_;'<|[(!)<323'(21[:<<}1122}111112[}2|[121|21112",
"|1||}|222|}1}|2^')))_321|1])3|<[[}1||2|[111111}|2}}23||21211",
"}2||[1222}|1|}233|1321||}|<;1|<[[1||||}[1|||}[[[|}222}1221||",
"|2|}|2|21}|||121}|1111|<<}2,_1<<|2|}||||||||}<[[|12|||111||}",
"|1}}22|21|2221|}[|221|<<||2]!2<[221}||121|11||1111[|22111|}}",
"||||111112|||}}}}1222}<|1}|<,|<|221|}|122|12222|}}}221|1||}[",
"<[[[}111|[<[[||[|2212|||}}||'(|2222|||122||1|[[<[11221|||}[[",
"<[}|2|}}[:[}|11|1|1|12|}}1[1{~32122|111|<<[<::<[|2212|}}}[}1",
"|221|[[}<<||||1||}}2221|||}2/!31|||}||<:_<<<:[|2222121|||[|1",
"22|}}<}|<}||||1||[|22211||13)/1}|||1|:::::<[}|21221111||}[}1",
"||}[}<[}[}}}||11|[22222||||};<}|1112::[<<<||||112||||}[}}[|2",
"|1}}}[|112222111||2222|}|1|/,1|1121[_<[}[}1||||2|[}}}<<[[[|2",
"12}|12222211222||12222|||}1'/3|||[(^:||[<|111|||}|}||}||1122",
"121221|121122211|12222||||[><[<[</]:|1[<[2211|}}|||122212222",
"121|[}|11|}}|11|||1221||}|~>[_:__]([}|}[}1|||}||[|1111111122",
"222||122|}}1222221233211|}^;>~/[[<}|}|||1|||}|11|12222222122"};
