/* XPM */
static char * 3_xpm[] = {
"60 60 32 1",
" 	c #000000",
".	c #111212",
"+	c #181818",
"@	c #202020",
"#	c #272727",
"$	c #313131",
"%	c #373737",
"&	c #3F3F3F",
"*	c #484848",
"=	c #4F4F4F",
"-	c #565656",
";	c #5E5E5E",
">	c #646464",
",	c #6D6E6E",
"'	c #777777",
")	c #7E7E7E",
"!	c #878787",
"~	c #8F8F8F",
"{	c #979797",
"]	c #9FA0A0",
"^	c #A8A9A8",
"/	c #B0B0B0",
"(	c #B8B8B8",
"_	c #BFBFBF",
":	c #C7C7C7",
"<	c #CECFCF",
"[	c #D6D6D6",
"}	c #DEDEDE",
"|	c #E5E5E5",
"1	c #EBEBEB",
"2	c #F1F2F2",
"3	c #F7F7F7",
"<}111|1|[}2222211221|}}[|32|2111122222222|221|||122}_[}[<111",
"|11||||}1|1112211221|}}}3221211222}];]322}1||2}1221_:}}[[211",
"11|111111|1222121121|}[1333|222<!& @@>221}|111}21}:_[}}}1211",
"21122112111111221121}}}2232|(,# %!:1;>221|12111}:<:[}||22211",
"111122_,-;- ~%&%%%%%%%%&&&&. *!_<[[[-+&&&%%&%%%$=}}|11222211",
"11111^>,&%* ' ~{{~~~~>#  @,]|2221122;&{~~~~{~!{,.}|111222211",
"|1111!.&([[_/.122[^;@ &~:32122222111;>2|1111[}2/.}1111222211",
"|1122!~(:[11/.22=.+-{}233311111111||;#------=!1/.}11112211||",
"111222[]:11}/.2| ~:}}}}}}[[<[[:<<[<<-.$$#@+. %1/.|2222211||1",
"11122221/~]~].2} :1322332111}_(_____=;|11121!$}^.22222212122",
"1|1211';~~{ ).[: <233332111111}|11||;;1221|}!$}/.32222221223",
"1||11));;;;+, }[ [2333212122|1|}11|1;-/21|[]!$|^.32122221313",
"|1||1!**^<<}/.2[ }3332112122|1|}}111;;|2}}1}!$|/.21112222112",
"11112^')_}11(.2} _[}[[:<<<<<:<::_[[:->22[11}!$|^.2111221|1}<",
"11111}11|1[|(.|} /::::(_:::::__((<<_=>22[}12~%1(.221|2221[:}",
"11111|1];->&~.[} [111|[12221||||}211;;[2}[1[~%2(.2||11221::[",
"1121}/*!!,' '.}} <122|[11121|||}}221;;:1}[|[!$}/.1}||}21}<_<",
"12|[}'--]^/'{.1} }221|[22221|}[}1221;>2|}[}1!%|/.1}}}}21|}^<",
"1|[|1'~)^:[1^.2[ [1111|22111[[}12232>>1}}||1~%2(.1}11|11|</[",
"2|11|<;-/}}}^.2[ ]//(^^(////^^^///((*>111111~%2/.||1111||:(1",
"11|||11|}(:_^.2[ <111}}11|1}<}|11121;-}111}[!%1/.|1111}}|:_2",
"11||11_>*-= ).1[ [1111|222|<}1122232-*[|||<_!%2/.|11||}[|_}2",
"11111];>&$& ).1[ <22113221<}11222231-;111||}!%1].}1|[[[}}[12",
"|1111).&/_:_(.|< [2333322}|22232332};>1221|}!%}].}1}}111|}12",
"}111|))]/_}2(.}[ [222221}11|[[11|[|1;>121}[}~%[].21|||21|123",
"||11|<(~(}11(.2| ^((((((//^]]/((/^^/*>11}}}|~$}].211222|1|23",
"1111|[[[]~^{^.2| [222221}[[[|1222}}1;;1|}}[}~$}].211221|}|23",
"1||12[,-))! ).2[ [11131[<[}1111221}};&[}}}^[~#[^.31122}|1233",
"11111)'=>,,$~.1[ [2332|}1222111_}2[<->|}}}|})%1/.31121|12332",
"||[[[!>,(}}2(.|} }333321|}1111%  (}[;>1|||[:~$1(.321|1123331",
"1[[}1],)_|22(.1} ]/////^^^~>-&   *^]&;11|[:1~$2(.32|}1123311",
"|}}||}121232(.2} [2222||1|&#*>+  {|<;;11|<}2~%3(.3111123321|",
"1122|11]>;,&!.1} }3222||111|11<'^1}|;;}1|[11~%2(.321122321||",
"2222|(=~~'! '.2} [2221}|121|1||11112>*}2[}_:~%2/.22212332211",
"1122|'=-^(_'{.2} [2221}|121|}}||1112;;|1[111~%2/.22212322211",
"11221'',_[}1(.1} :}}}<<}[[<}[<<<<}}[-;1|}222~%2(.33212223211",
"121}1<''(122(.1} ^___(((((_:(/(____(*;}|}222~%2(.221223331}}",
"2|[12||[}[1[(.2} <2231||1|12}1|||1|};-|11221~%2(.1212222|}}|",
"}[1221^=&;- ).1[ <2221||1112}|[}}|}}-*2211}<~%2(.121}}|}1222",
"[221}{>,--> ).|} [1231}}}|23}1}||}}};;322111~%2/.321111111|}",
"21|}}'.;:}}<^.1} :||1}[[}|1|[}}}}}}};>3211|2~$}/.211222221<}",
"||}}|!']:[|1(.1[ ](((////(_//(/(//(^&>3111|2~%1/.2}}|122[[|1",
"}|}1|1({<112(.1< [212|11232[|111|[<:;>211111~%1/.112322}|111",
"}|11||21/'~!{.|} }111222231}|22|[:[|>>311221~%1/.11122122221",
"}111|}';)') '.1| }11122233}}12}<[[}1>*2|122:~%|^.2[123|22222",
"|211|),&;,,$!.2| }2123212|}|11[}[}12;>2}111|~%}^.1}232|22222",
"|211|!))([[1(.2| [221211|}}}11[[}11|;>|}1111~$}^.}233112221|",
"|21||/))_[11(.3| ](((((^^//(((^^/_(/*>11111|!$}^.1212122211}",
"|21|12111122_.1[ <2221}<}1||11}}222|;>222111~$1/.2||222221|}",
"|211221]>-,&!.|[ [3321[|11|121[}2221;;222122~%2(.|}23211121}",
"[}}}}_=~~'' '.1[ [223||11|1|1|}22221;;2221<:~$}^.112321111}[",
"[}}|1)==]^/'{.2[ [21121}|1|}||132222;>12}[}})$[^.32221|||||1",
"|2322';-{^_<] <_ _[}}}}[[[[[[[}}}[[<--:(/(((>#:].[[<[[:<1}|1",
"322||'           +={}1||}}|||}}[}}}};                   _}|1",
"211}|[}|}|||1111}{;+ *~<|1||11||2222>;}[[[}1|11121111|}||}|2",
"|1|||}11222221221|22_'$ #,^||}|12221-;}}|}1111122}|||[[}}}|2",
"22||1222322222211123332[~& .-]}111<(*;1|[|2211|2|1|||}111122",
"2312222122122222123222||11[]-. @*,!~*>}[[22221||111122222222",
"2221||1222111221112232121|[<::]># +>&>|}}2211111|11222222222",
"221||121}}[1222111133211}[/(___<:^)* >}}|}}}[}|1||1122211122"};
