/* XPM */
static char * 4_xpm[] = {
"60 60 32 1",
" 	c #AAABAA",
".	c #AFAFAF",
"+	c #B3B3B3",
"@	c #B5B5B5",
"#	c #B9B9B9",
"$	c #BDBDBD",
"%	c #C1C1C1",
"&	c #C4C4C4",
"*	c #C8C8C8",
"=	c #CBCBCB",
"-	c #CECECE",
";	c #D1D1D1",
">	c #D4D5D5",
",	c #D7D8D8",
"'	c #DBDBDB",
")	c #DFDFDF",
"!	c #E1E1E1",
"~	c #E3E3E3",
"{	c #E4E5E5",
"]	c #E6E6E6",
"^	c #E8E8E8",
"/	c #E9EAE9",
"(	c #EBEBEB",
"_	c #EDEDED",
":	c #EEEEEE",
"<	c #EFEFEF",
"[	c #F0F0F0",
"}	c #F1F2F1",
"|	c #F2F3F2",
"1	c #F3F4F4",
"2	c #F5F5F5",
"3	c #F7F8F7",
"-)(^^]^~>!||||1((}|:{!)']2|]|((::[[}}|||1~}}/{~]_}<)$>'>-^((",
"{^^]]{])(~/_:<|_([}:]!)'211/}::<<[}|1221}!({~<!_|[($*'),>}_^",
":(](((((^~:[<}_<_:}_~),(222]|[[[}|<|12|<_)]:(:!|(!=%,))!:}:^",
"<_(<<((<(}}|[_|}(_}^!')|121{[:[}||[:}|}<(~/[(/()*-=>!~]||}:^",
":__:<<<|[::_!/1/^/]~~,/|22|!<((^]::[(|[:(~/:]!]=>'){^^<}[[_^",
"^((((_[^]/:~{_/([]{~~)<1221~:<[<_^<[([_~]~]_~,({')~(((||[[(^",
"](:(/[[(((<]()(||)!)!([233[/|}}}<(^/_|}~/^:^,)|!,)(_^^|[<<^^",
"](:<[||:_(:_']<||')/}|1332(/((^/^/~{(::{!~!,,]:/,)(((_[<:(~{",
"^(_<<||[__(!~(<1(''}2|333<:](/']]^]!]((~/]^_<:::,{}}|||:/]{(",
"((([[|||:(~{_/|:>'^2||33|(:/^^']/(/]~]^/::[[!!)'^[1|||}:<:||",
"({^[:}|1/^]^_^,,'^|2223|(^:((_!~((]~{!(}}_]'!{!^_2}}||}}_[13",
"^]](_[2[{!,;--!{^_|223|/[(<[]^~)^/]^]~(|_~)^]~{!12<:[}|}:2_3",
"]/]{(}},')'){(|]|2233|(/<_<<]^]))/(^)/|})!_~!{~{||(/(|||<^/<",
"___:[[{:[(/^<^1}32232}!](:<(]^]!'||](:||'^^'~]~~3}_(/}[_~^!;",
"(((_(!(_<(,]}^~[||12|('^<<_(^]^)'1[!_<|1')/||}:22||:]}[[(>&'",
"^^_((~:__',(_!,(:<(/:{,([[<(]{]~)|(^_[|1),_[}|[2||]{((<<^&*,",
"(_<^!')!'',:/,!|[/_|[],(::<(]]{))<|/([2_),]:]])//()]]!|/!-$-",
"(<]>'!^_','<],(_(2||^{,[}[<({)>)_<1:^}1~'>)(^/{:[/'!!!<^~' -",
"({,{^/_:,'!/,)|{::(/^^]|<(:('>)^[<2[__:'']]([:[|<^)//]:/~-+,",
"[]^^]/_^!~')'([~]::(|~)|:_[^''{<<}2|_^_^(^((/<[(<]]::(^~{&#_",
"(/]]](:~';;,)2<^![|||]~||_}]>!(<[}2|!^^^(/(]]__(}~/_(())]*%|",
"(_]]^_/'>>''^1_^!(:::/~1|<~;'(([[|2|>(~{{]^']|1(<~(:]~',{%'|",
"/:(^//)>''''||(^~/<<__2}|:;)^_}||13^'^^_(]]'~}(>()(],>>)!,/|",
"~__^^~>>,>,~1:{))(|2333|<!{<}|2|32|)(^:<<(]!^2)>~)^)'^((~'(1",
"!^:/])->;>~</!!]}233332|][}())[[_'<}^/(<_',)}|';~}^{~]<:]/[2",
"{{^(]-;>,'^/^_|2233232|}:/),>][}_)~]//_(!)!]<{'-([/_<<<]^]<2",
"(^/(]''''/1|||12}111||[:!>>>{(<|}!)^/^^~)!)!<~';(|(/[|(~){<2",
"(~](<''')22|||</:[:/_2_>;,'^_(:[[/)!(({!!)])~*''(3_^<|!](|23",
"^^^((!';:31|}<^^[}|221]'^[<<:::[[<';)(]!)'~';]^_23_(<_~:}23|",
"~~,>'!='2|||}(](|23322}:{!^^(_:[<^!>)]/{{],*|(^123<_{//<232^",
"(,''^';|1|1}_]_||22221_^]~~{]~!')!{>~!^^{>&_1]}322<{!(_|33:^",
"~'!{~!^|}12<(|1||2322|]]:^~{]~!){^]-('_/]-!<[|2322//_:|23}/{",
"/([}]^|221|:](/_2221|<~]::^~/(__[/){]~!(~,/:}||212|::[131/]{",
"}}1<]~(||}[(^:<||}1|[:)]_<(]^]~(_^_[(~)<'!:[|[[:}1|<([22|<(:",
"^^}[]~):[__]_<[|||1|[/)]:<^]!!~{/_:|^)~('/<[}<|_211}([3|1}__",
"^_}}^!!~_//^||:_|__:[)!_(]~[]!!~~[|^~'(])<[|:[|2332}(1112|_:",
"_|():{{!^}<}<]/}^]/_<^^^{~_|]'^_:}[~~))]!||[:||12|}:|1222:!'",
"|{>([]~,~[|21[|[[/}|2(]]^]:|!^]~~/{!'>]:^||([||22:<_||||]!!~",
"),_||/~)/}222((/~^1|1_]{^/(}'],))~'',,}}:(:(||}1<_}(!!~!^<}}",
",<|_!)^[|}|2|!{_(|:<2:!)!~|2'/!~~!))')2|[^:11}<_|21^(_(^^/]'",
"}:]')]1[[[}}~~_[!(<}2({~^:2<)_]^]]^^!:2[_^]||()(1|_(|}[}1(;)",
"]~)!]^1|:(^^_]/^):[|1]~!^|3!)(^(]^()>22(^:{}|((<21))~^<|',]:",
"!]!({^1|:^(|()^)(1|_|~^:}31,~(^^]>;=_|1^_:(:11((2_(121|'~((:",
"!~(^~]|||/:}/)~<|2((_}[}|3^']<|~,*>{[|2::}[_|2(^((/:||^}}}<:",
"!((^~~122_<:^'^122_(_1<}22!!/|);>>!_<}2~_<[<[|{~[|'(12]|[}}<",
"]<(_]]||1:{_^)<212[_<2|_1]){:_,'''(<_|[)_::<<}!~}/!|3|]||||}",
"~}_/~(|22~{:(~[32|}[<|_:^~))[:,''_:^^}])__/^]~)!(![22//||[:]",
"~|(~~2(||!/((]21_]<}}<('']{(|/,'!1:~^(^^(/^]{'''((1:<^}}<:(!",
"][^~:|([|^<|1|(]){|1|();!^]]_^''<1<]](<}}::_(~/_[}]{[1[}[_]!",
"][^^|[<[[}|<(^]~!(22</,~_/](<^,!1|}^{(<||(<|||}|]{![2|_:(<^)",
",)))![:[(~,''):!]|1|2]]:^~({(])[1|}(]_[||:<[_{)'):_|21(((^),",
">')]:({~)>'~][}]<(<:([^!~_]!]](2}||[<<_[),''>->)~21[|:{~~~~(",
"]<2|[!)~';](/_</(^/|31[(/^^]_(|1[:(](()>*>>>*>~:222}||](^'{/",
"21[]],~]''((^/:/()]311}:/(<[<:^{]^/(:>-=&-;')(|1|2|[[[(_]){:",
"|:^)~,!~']~~^^_:_):1|2|:](]]^^~]<<[})='',>!^](:_}(^((])]~)]|",
"](]{{'^(<||}[:[<:]}1|1:!]:!^~!]([}[/>,''~!((/(:||'{~~',''){|",
"[1]]^}1121|[}|}_(^|222<<:]~]<:[:(^;@${^{>]<[:/]<{^]{~'^((:11",
"<2/|||<_}<(|1|}<^[21||]](():])'',%.$!_!,,<|[[/{~(^/_|||}|}|1",
"<|<({{^}|<(^^}[_(^}}21:<({>;&*--=+#)](])!|}:_^^^~_:<}[[[}[|1",
"}}({~^|(!'>^|1|:_(/22|(^!>.#%%&-*#;'''))~!''>']^{~(_<<<:_/}|"};
