/* XPM */
static char * 2_xpm[] = {
"60 60 32 1",
" 	c #3E3932",
".	c #716456",
"+	c #EA67C1",
"@	c #93928E",
"#	c #C48958",
"$	c #EF7CCE",
"%	c #B99D66",
"&	c #DF9B28",
"*	c #B2A996",
"=	c #EF91D5",
"-	c #D7A64E",
";	c #E5B03A",
">	c #D6ABC1",
",	c #B8B6B2",
"'	c #E0B873",
")	c #E8BB40",
"!	c #DABC8A",
"~	c #EAC24D",
"{	c #EDBCDF",
"]	c #ECC860",
"^	c #CBCBCA",
"/	c #ECCC70",
"(	c #EACF87",
"_	c #E7D49F",
":	c #DDD5C3",
"<	c #E7D7B4",
"[	c #D9D9D9",
"}	c #E3E3E3",
"|	c #EFE2C5",
"1	c #EAEAEA",
"2	c #F1F1F1",
"3	c #F6F7F7",
"^}111}1}}}2222211221{{===={{2112222223332}21}1}1222[,[}[^111",
"21111}1}2}111221122{$$++$$$={222222233222}11}2}222},^[[[[211",
"21112111}122221222{=+++++$$$=222222222221}1221}2[[^^[}}12221",
"221221222222112211{$++++++$$$112222222221}121}2^^[[}}}122221",
"111112221111}12111{$++++++$$$111112212211}11}}}[}}}111222211",
"11111121112}11122}{$++++++$$$}222112122}1}12}[2}[}}111222211",
"}12112211121}}222[{$++++++$$${2211}1222}111}[}2}[}1111222211",
"112222221121[1222[{$++++++$$${}111}}112}}}}[}111}}12222211}}",
"11122222111}1122}[[{{>>>^[}1}[[}}11}}11121122121[12222221112",
"1112222211}1112}^121[,**,^^:,*^1111}}}11222}[[[1122222222232",
"1}1222221111}[[[}1^,@@@@*,,^,,[}11}}}}1321}}1}}}232222221223",
"}1111231[[^^^[111211}^,,^:[[:,^}}111}}22}[}1}}}}232122222213",
"1111121[1111112132^,**%%%%%%%%[}}121}122}11[}}}}321112221}2}",
"1222211221}}212233[!';;;]///~/1}[22}1222[}}}11}1322212211}^[",
"11111}1121[12}}1222|(~~~]///]/1}}21}1222[[222223322}12221^^[",
"11211}11}[[11[[2211|(~~~]///]/1}}2211222}[12121221}11121}^^[",
"122}[[}}}[[21[}2122|(~~~]///]][[}221123}}[}1}1}111[}}}21}[,^",
"11[[}112[[}2}[21222|_~~~~///]][}2232122}[[}1111221[}}}21}[,^",
"2}}11111[}}1[12}111|_~~~~///]]}1223221|(:|11122221}11111}^,}",
"2111112}}[[[[22}}22|_~~~~////]}22232}]<;_(1112112}1222}}}^,2",
"111}112}[^[[}221}22|_-~)~/'%%/:22232[~_;'/<:}2222}1111}[}^^2",
"111111}[[[[[1211}11|@..-)]%%'-|22232[(/;-/;:122}1}11}[[[}^}2",
"121111[[[[[[3211}12|_]~))//(/~_2333_:_));;/}12}[1[11[[[}}[12",
"}1211}[[[[}121}}123|__2|]/1[2]_2212']())~)(}13}[}}1[}122}}22",
"}}11}[^[[[}2}}122332_2 ^_!@ [__21}11'~]~))(}21[^12111121}123",
"1111}^[[[}1122233332_} @_',.}((22}}1}-))))|}2}}^1211222}}}23",
"1}111[[[[23222222222(|::-;'<_~(22}}}1}!&;]}}2[[[131122}}}123",
"1}112[[[}33222112211(]];;)]]/~/221}[}1:&)(}[[^}}231122}12333",
"11}}}}[[232221112233(])#''!%/~/222[[}1:;)(}^}212331211}22331",
"1}[[}}^}32222112233|/])#...#/~]<}}}[}}!;)|^[21133321}1123321",
"1[[}}[[32222112223|];]);(!'//~~]/(_<<'&;]^^22123331}11223311",
"}}111}222332122123(;&]))))]]/~);))));&&;|^11223333222223321}",
"12221}222221}1123|]&&~)))~/]]])'-&;&&&-|}[122222232212332111",
"22221}}2222112222_)&&~))))]]]]~:1}<!!:}2[}222221222212322212",
"11221}}1211}22222()&')))))]]]]~:1222}[}1[1222222333212323211",
"12221}}}111121121];-')))))]]]]~|122}}}11}2221223332223233211",
"22}}1}}[}2222122:];'!)))))]]]]~<221}}[}1}2222223322122332}[[",
"2[}221}[}2233222|~)!<;))))]]]]~_[}}[[[1212212223212221111111",
"[}221}}}22233111|~)!|;))))]]]]~_}}[[[[22211222222221}}}}}122",
"}22}[}2222231}12|~)_:;))))]]]]~_}}}}}}322}122211222}222222}[",
"21}[}12222211112<))_1;))))]]]]~(}111}23211}22}}2221211122[[1",
"}}}}}12221112}1}<))_2;))))~]]]~(1}}^[22112}2221232[}1221^}12",
"}}}1}12221121[}1|))_2;))))~]]]~/}^^[2221222223112122221}2221",
"}}11}}2221221}}2|~)(1-))))~]]]~][^[122311222221}12}122122222",
"}111}}2222111[13|/)~1-))))~]]]~][[}1223}122222}}22[233122222",
"}211}12331}21}23<])~<-;)))~]]]~][}22121[121211}}2}}332122222",
"}211}2222}111}23<~;]_#;))))]]]~][22}11}}2111}}[[1}222}12221}",
"}21}}3122}112232<)&//#&))))]]]~/132}112112111[}}12211222221}",
"}2}}2222222322}}:;&-/<-;//)/_((:2221}1222122222222}1222221}}",
"11121112221}}}1}}';'11!!____<<<12221}1222122222}[}12221111}[",
"^[[[}2211[[}}12}11-):1:______<<2222212222111}[[[}2223211}1[[",
"[}1221}}[[}11221211:221_______|322222211^^[[^^[}13322211}}}2",
"23221}}}[[1111211}}3322:______:2111}1}[^^[[[^}12333222111}11",
"321}}[}}[}1111211}132221_____<}}11222^[^^^[}}12222222211}[}2",
"11}}}[}}}1}111122}222221:____|}12222^[[[[[1111222}111}[}}}12",
"221}}}22222222221122221}1____:12222[^[}}}}1211121}}}}[}}}}12",
"22}1223222222222113333211:!!*11}}[,,^1}}[12221}1}1}111222222",
"2322211122122222113222112}  .[[[^,,^12}[[22221}}111222222222",
"2221}}1221}}1221111232211}@ @^^^^,,}}11}1211}}11}12222222222",
"33322232111333333223332221^.}}}1}[12111121111122223333333233"};
