/* XPM */
static char * wall_xpm[] = {
"60 60 32 1",
" 	c #3A5C84",
".	c #6F636A",
"+	c #3C75A5",
"@	c #946F64",
"#	c #A26D55",
"$	c #C36A35",
"%	c #8D7C7A",
"&	c #3A8FCA",
"*	c #2D97DD",
"=	c #9C7F7A",
"-	c #D3773C",
";	c #A48273",
">	c #E27C37",
",	c #A88A7E",
"'	c #27ABFB",
")	c #AB9695",
"!	c #B29689",
"~	c #FC8F3E",
"{	c #B89E90",
"]	c #FF9648",
"^	c #BBBABA",
"/	c #CEB9A4",
"(	c #CBCACA",
"_	c #DAC8B2",
":	c #D5D5D5",
"<	c #E7DBC2",
"[	c #DDDEDD",
"}	c #E4E4E4",
"|	c #EFE3CA",
"1	c #EAEAEA",
"2	c #F1F1F1",
"3	c #FFF8DC",
"([111}1}:}2222211222}}[[122}2112222222222}221}}}122[^:[:(111",
"}1111}1[1}1122211222}}[[22212222222222222}1}}2}1221^([[::211",
"211111111}2222121221}[:1222}2222222222221[}212}21}(^:[[}2221",
"21122112122221221121}[[2222}2222222222221}12111[(((:}}122221",
"211222222221}121111}}:12222}2111122212221}12}}}(:[[}11222211",
"11111121}12}}11121}}}[22222}22221122121}}}}1}:1}[[}111222211",
"}121122111211[122[}[}122222122222111122}1121:[2}:[1111222211",
"112222221121[}222[[122222211111111}}122}}}}::}21:[11112221}}",
"11122222^=!!!!!!!!!!!!!{{!!,^1[(=!!!!!!!!!!!!!!!!!!)222211}1",
"11122222,3333333333333333333@1[=3333333333333333333;22222222",
"1}122222{3333333333333333333@1}=3333333333333333333!12221222",
"11}11222!33333333,;;|3333333@1}=3333333333333333333!}2222212",
"}11}122:!3333333_$~>{3333333@11=3333333333333333333!}2222112",
"111222}2{3333333_-~>{3333333@1}=33_%%^)%%%%%%%%%/33!}221}1}:",
"11111}11{3333333_-~>{3333333@}1=33,''''''''''''*%33![2221:([",
"11111}21{3333333_-~>{3333333@}1=33,''''''''''''*%33!}1221((:",
"1121}[[}!333////!-~>;////|33@}}=33{             ,33![}21}(^(",
"12}:[}11!33!-----~~~>----;33@[:=3333333333333333333!:}21}[^(",
"1}:}1112!33,~~~~~~~~~~~~~;33@:[=3333333333333333333!}121}(^:",
"2}111111!33,>>>>>~~~>>~>>;33@[}=333<<<<<<<<<<<<<333!}11}}(^1",
"111}112}!33|{{{{;>~>@{/_{<33@}1=33{+++++++++++++=33!}1[[1(^2",
"111}111[!3333333_-~>{3333333@11=33;''''''''''''*%33![}[:}^[2",
"121111[:!33333333]~>{3333333@12=33,''''''''''''*%33!(::[}:12",
"}1111}::!3333333_-~>{3333333@22=33<=%%%%%%%=^^%=_33!:111}[12",
"}121}[(:!3333333_-~>{3333333@[2=3333333333333333333![}22}122",
"}}11}(::!3333333|;;@<3333333@}2=3333333333333333333!}2211122",
"1111}[[[!3333333333333333333@12=3333333333333333333!}21}[}22",
"1}}12[[[,333333333333333333|@12=333333333333333333|;12}11222",
"11111}[:)@@@@@@@@@@@@@@@@@@@)22^@@@@@@@@@@@@@@@@@@@@21}22222",
"}}::[}([2222211122222222}}11112221}:[11}}}:(21122221}1122221",
"1:[[1[:222221}12222222111}}}}}}[[}}:}}11}:(12}22222}}1122221",
"}[}}}}12:===================^}}:===================)1222221}",
"1122}122,3333333333333333333@11=|333333333333333333@122221}}",
"22221}12{3333333333333333333@}}=33333333<;{33333333!}2222212",
"11221}[2{3333<_3333333__3333@}}=3333333_$~>#3333333!}2222211",
"11221}}}{333<++/33333/++/333@}}=3333333#]~~$<333333!}2222212",
"121[2}}}!33< '''{333/+''+/33@[1=3333333#~~~$<333333!122222}[",
"2}:12}}:!33{&'''&{3/+'''*,33@1}=3333333_$~-#3333333!1222}}}}",
"[:1221}[!333=&'''+=+'''*.333@}:=33333333<!/33333333!:}}}1222",
":221}[12{3333,&'''''''*.3333@1}=333|<<<<<<<<|3<<333!}111111[",
"22}[[122{33333,&'''''&.33333@11=33/$$$$$-----]$$#33!122221:[",
"1}[}}122{333333%'''''.333333@11=33{>~~~~~~~~~~~~#33!:122[:12",
"}}}1}122{33333/+'''''+{33333@11=33/-~~~~~~~~~~~~#33!122[}112",
"}}11}}22{3333_+'''''''+{3333@22=33|;;;;;;;;;;;;;/33!12122222",
"}111}}22{333_+'''*.&'''+{333@2[=333333333<|33333333!12122222",
"}2111}22{33_+'''*%3=&'''+/33@1:=3333333|#$${3333333!12}22222",
"}211}122{33/+''*%333^*''&{33@2:=3333333;]~~$|333333!11122221",
"}21}}212{333!&*%33333)&&%333@1:=3333333#~~~$<333333!}122221}",
"}21}2212{3333{%3333333,)3333@1[=3333333{>~>#3333333!}22221}}",
"}2112222{3333333333333333333@1:=33333333/##<3333333!1212121[",
":[[[}222!333333333333333333|@}[=3333333333333333333;121111[:",
":[[121}})@,,,,,,,,,,,,,,,,,@)11^@,,,,,,,,,,,,,,,,,;@22}}}}}1",
"12222}[}[(}}}}1}}}}1211}}}}}112221}[}}:(^::(^([1222222111[}1",
"22211:}}[[1111211[1222221122221}11112:((((:[[12222222211}[}2",
"221[}:}}[}}}11121[222222111111}}2222[([[::}11121211111[}}[}2",
"111}}[11222222222}22222}12}1}}}12221::[[}}1111222[}}}[:[[[}2",
"22}}122222222221112222222}}1222211:^^}1}:}2221}2}1}}}[111222",
"22122221221222221222221111[2}[[[:^^^}1}::22221}}111122222222",
"2221}}1222111221112222221}::(((((^^[11}[}2221111}12222222222",
"221}}121}[:1222211122211}:^^^^(((^:[[[[[}}[[:[}1}}1122221122"};
